<?xml version="1.0" standalone="no"?>
<!DOCTYPE svg PUBLIC "-//W3C//DTD SVG 1.1//EN" "http://www.w3.org/Graphics/SVG/1.1/DTD/svg11.dtd" >
<svg xmlns="http://www.w3.org/2000/svg">
<metadata></metadata>
<defs>
<font id="fontawesomeregularregular" horiz-adv-x="1536" >
<font-face units-per-em="1792" ascent="1536" descent="-256" />
<missing-glyph horiz-adv-x="1664" />
<glyph horiz-adv-x="0" />
<glyph unicode="&#x9;" horiz-adv-x="597" />
<glyph unicode="&#xd;" horiz-adv-x="597" />
<glyph horiz-adv-x="500" d="M0 0z" />
<glyph horiz-adv-x="1792" d="M93 1350q0 23 18 36.5t38 17.5t43 4h1408q23 0 43 -4t38 -17.5t18 -36.5q0 -35 -43 -78l-632 -632v-768h320q26 0 45 -19t19 -45t-19 -45t-45 -19h-896q-26 0 -45 19t-19 45t19 45t45 19h320v768l-632 632q-43 43 -43 78z" />
<glyph d="M0 -64q0 50 34 89t86 60.5t103.5 32t96.5 10.5q105 0 192 -39v967q0 31 19 56.5t49 35.5l832 256q12 4 28 4q40 0 68 -28t28 -68v-1120q0 -50 -34 -89t-86 -60.5t-103.5 -32t-96.5 -10.5t-96.5 10.5t-103.5 32t-86 60.5t-34 89t34 89t86 60.5t103.5 32t96.5 10.5 q105 0 192 -39v537l-768 -237v-709q0 -50 -34 -89t-86 -60.5t-103.5 -32t-96.5 -10.5t-96.5 10.5t-103.5 32t-86 60.5t-34 89z" />
<glyph horiz-adv-x="1664" d="M0 704q0 143 55.5 273.5t150 225t225 150t273.5 55.5t273.5 -55.5t225 -150t150 -225t55.5 -273.5q0 -220 -124 -399l343 -343q37 -37 37 -90q0 -52 -38 -90t-90 -38q-54 0 -90 38l-343 342q-179 -124 -399 -124q-143 0 -273.5 55.5t-225 150t-150 225t-55.5 273.5z M256 704q0 -185 131.5 -316.5t316.5 -131.5t316.5 131.5t131.5 316.5t-131.5 316.5t-316.5 131.5t-316.5 -131.5t-131.5 -316.5z" />
<glyph horiz-adv-x="1792" d="M0 32v1088q0 66 47 113t113 47h1472q66 0 113 -47t47 -113v-1088q0 -66 -47 -113t-113 -47h-1472q-66 0 -113 47t-47 113zM128 32q0 -13 9.5 -22.5t22.5 -9.5h1472q13 0 22.5 9.5t9.5 22.5v768q-32 -36 -69 -66q-268 -206 -426 -338q-51 -43 -83 -67t-86.5 -48.5 t-102.5 -24.5h-1h-1q-48 0 -102.5 24.5t-86.5 48.5t-83 67q-158 132 -426 338q-37 30 -69 66v-768zM128 1120q0 -168 147 -284q193 -152 401 -317q6 -5 35 -29.5t46 -37.5t44.5 -31.5t50.5 -27.5t43 -9h1h1q20 0 43 9t50.5 27.5t44.5 31.5t46 37.5t35 29.5q208 165 401 317 q54 43 100.5 115.5t46.5 131.5v11v14v12l-4 13l-5 9l-9 8l-14 2h-1472q-13 0 -22.5 -9.5t-9.5 -22.5z" />
<glyph horiz-adv-x="1792" d="M0 940q0 220 127 344t351 124q62 0 126.5 -21.5t120 -58t95.5 -68.5t76 -68q36 36 76 68t95.5 68.5t120 58t126.5 21.5q224 0 351 -124t127 -344q0 -221 -229 -450l-623 -600q-18 -18 -44 -18t-44 18l-624 602q-10 8 -27.5 26t-55.5 65.5t-68 97.5t-53.5 121t-23.5 138z " />
<glyph horiz-adv-x="1664" d="M0 889q0 37 56 46l502 73l225 455q19 41 49 41t49 -41l225 -455l502 -73q56 -9 56 -46q0 -22 -26 -48l-363 -354l86 -500q1 -7 1 -20q0 -21 -10.5 -35.5t-30.5 -14.5q-19 0 -40 12l-449 236l-449 -236q-22 -12 -40 -12q-21 0 -31.5 14.5t-10.5 35.5q0 6 2 20l86 500 l-364 354q-25 27 -25 48z" />
<glyph unicode=" " horiz-adv-x="1664" d="M0 889q0 37 56 46l502 73l225 455q19 41 49 41t49 -41l225 -455l502 -73q56 -9 56 -46q0 -22 -26 -48l-363 -354l86 -500q1 -7 1 -20q0 -50 -41 -50q-19 0 -40 12l-449 236l-449 -236q-22 -12 -40 -12q-21 0 -31.5 14.5t-10.5 35.5q0 6 2 20l86 500l-364 354 q-25 27 -25 48zM221 829l306 -297l-73 -421l378 199l377 -199l-72 421l306 297l-422 62l-189 382l-189 -382z" />
<glyph unicode="!" horiz-adv-x="1408" d="M0 131q0 53 3.5 103.5t14 109t26.5 108.5t43 97.5t62 81t85.5 53.5t111.5 20q9 0 42 -21.5t74.5 -48t108 -48t133.5 -21.5t133.5 21.5t108 48t74.5 48t42 21.5q61 0 111.5 -20t85.5 -53.5t62 -81t43 -97.5t26.5 -108.5t14 -109t3.5 -103.5q0 -120 -73 -189.5t-194 -69.5 h-874q-121 0 -194 69.5t-73 189.5zM320 1024q0 159 112.5 271.5t271.5 112.5t271.5 -112.5t112.5 -271.5t-112.5 -271.5t-271.5 -112.5t-271.5 112.5t-112.5 271.5z" />
<glyph unicode="&#x22;" horiz-adv-x="1920" d="M0 -96v1344q0 66 47 113t113 47h1600q66 0 113 -47t47 -113v-1344q0 -66 -47 -113t-113 -47h-1600q-66 0 -113 47t-47 113zM128 64v-128q0 -26 19 -45t45 -19h128q26 0 45 19t19 45v128q0 26 -19 45t-45 19h-128q-26 0 -45 -19t-19 -45zM128 320q0 -26 19 -45t45 -19h128 q26 0 45 19t19 45v128q0 26 -19 45t-45 19h-128q-26 0 -45 -19t-19 -45v-128zM128 704q0 -26 19 -45t45 -19h128q26 0 45 19t19 45v128q0 26 -19 45t-45 19h-128q-26 0 -45 -19t-19 -45v-128zM128 1088q0 -26 19 -45t45 -19h128q26 0 45 19t19 45v128q0 26 -19 45t-45 19 h-128q-26 0 -45 -19t-19 -45v-128zM512 -64q0 -26 19 -45t45 -19h768q26 0 45 19t19 45v512q0 26 -19 45t-45 19h-768q-26 0 -45 -19t-19 -45v-512zM512 704q0 -26 19 -45t45 -19h768q26 0 45 19t19 45v512q0 26 -19 45t-45 19h-768q-26 0 -45 -19t-19 -45v-512zM1536 64 v-128q0 -26 19 -45t45 -19h128q26 0 45 19t19 45v128q0 26 -19 45t-45 19h-128q-26 0 -45 -19t-19 -45zM1536 320q0 -26 19 -45t45 -19h128q26 0 45 19t19 45v128q0 26 -19 45t-45 19h-128q-26 0 -45 -19t-19 -45v-128zM1536 704q0 -26 19 -45t45 -19h128q26 0 45 19t19 45 v128q0 26 -19 45t-45 19h-128q-26 0 -45 -19t-19 -45v-128zM1536 1088q0 -26 19 -45t45 -19h128q26 0 45 19t19 45v128q0 26 -19 45t-45 19h-128q-26 0 -45 -19t-19 -45v-128z" />
<glyph unicode="#" horiz-adv-x="1664" d="M0 128v384q0 52 38 90t90 38h512q52 0 90 -38t38 -90v-384q0 -52 -38 -90t-90 -38h-512q-52 0 -90 38t-38 90zM0 896v384q0 52 38 90t90 38h512q52 0 90 -38t38 -90v-384q0 -52 -38 -90t-90 -38h-512q-52 0 -90 38t-38 90zM896 128v384q0 52 38 90t90 38h512q52 0 90 -38 t38 -90v-384q0 -52 -38 -90t-90 -38h-512q-52 0 -90 38t-38 90zM896 896v384q0 52 38 90t90 38h512q52 0 90 -38t38 -90v-384q0 -52 -38 -90t-90 -38h-512q-52 0 -90 38t-38 90z" />
<glyph unicode="$" horiz-adv-x="1792" d="M0 96v192q0 40 28 68t68 28h320q40 0 68 -28t28 -68v-192q0 -40 -28 -68t-68 -28h-320q-40 0 -68 28t-28 68zM0 608v192q0 40 28 68t68 28h320q40 0 68 -28t28 -68v-192q0 -40 -28 -68t-68 -28h-320q-40 0 -68 28t-28 68zM0 1120v192q0 40 28 68t68 28h320q40 0 68 -28 t28 -68v-192q0 -40 -28 -68t-68 -28h-320q-40 0 -68 28t-28 68zM640 96v192q0 40 28 68t68 28h320q40 0 68 -28t28 -68v-192q0 -40 -28 -68t-68 -28h-320q-40 0 -68 28t-28 68zM640 608v192q0 40 28 68t68 28h320q40 0 68 -28t28 -68v-192q0 -40 -28 -68t-68 -28h-320 q-40 0 -68 28t-28 68zM640 1120v192q0 40 28 68t68 28h320q40 0 68 -28t28 -68v-192q0 -40 -28 -68t-68 -28h-320q-40 0 -68 28t-28 68zM1280 96v192q0 40 28 68t68 28h320q40 0 68 -28t28 -68v-192q0 -40 -28 -68t-68 -28h-320q-40 0 -68 28t-28 68zM1280 608v192 q0 40 28 68t68 28h320q40 0 68 -28t28 -68v-192q0 -40 -28 -68t-68 -28h-320q-40 0 -68 28t-28 68zM1280 1120v192q0 40 28 68t68 28h320q40 0 68 -28t28 -68v-192q0 -40 -28 -68t-68 -28h-320q-40 0 -68 28t-28 68z" />
<glyph unicode="%" horiz-adv-x="1792" d="M0 96v192q0 40 28 68t68 28h320q40 0 68 -28t28 -68v-192q0 -40 -28 -68t-68 -28h-320q-40 0 -68 28t-28 68zM0 608v192q0 40 28 68t68 28h320q40 0 68 -28t28 -68v-192q0 -40 -28 -68t-68 -28h-320q-40 0 -68 28t-28 68zM0 1120v192q0 40 28 68t68 28h320q40 0 68 -28 t28 -68v-192q0 -40 -28 -68t-68 -28h-320q-40 0 -68 28t-28 68zM640 96v192q0 40 28 68t68 28h960q40 0 68 -28t28 -68v-192q0 -40 -28 -68t-68 -28h-960q-40 0 -68 28t-28 68zM640 608v192q0 40 28 68t68 28h960q40 0 68 -28t28 -68v-192q0 -40 -28 -68t-68 -28h-960 q-40 0 -68 28t-28 68zM640 1120v192q0 40 28 68t68 28h960q40 0 68 -28t28 -68v-192q0 -40 -28 -68t-68 -28h-960q-40 0 -68 28t-28 68z" />
<glyph unicode="&#x26;" horiz-adv-x="1792" d="M121 608q0 40 28 68l136 136q28 28 68 28t68 -28l294 -295l656 657q28 28 68 28t68 -28l136 -136q28 -28 28 -68t-28 -68l-724 -724l-136 -136q-28 -28 -68 -28t-68 28l-136 136l-362 362q-28 28 -28 68z" />
<glyph unicode="'" horiz-adv-x="1408" d="M110 214q0 40 28 68l294 294l-294 294q-28 28 -28 68t28 68l136 136q28 28 68 28t68 -28l294 -294l294 294q28 28 68 28t68 -28l136 -136q28 -28 28 -68t-28 -68l-294 -294l294 -294q28 -28 28 -68t-28 -68l-136 -136q-28 -28 -68 -28t-68 28l-294 294l-294 -294 q-28 -28 -68 -28t-68 28l-136 136q-28 28 -28 68z" />
<glyph unicode="(" horiz-adv-x="1664" d="M0 704q0 143 55.5 273.5t150 225t225 150t273.5 55.5t273.5 -55.5t225 -150t150 -225t55.5 -273.5q0 -220 -124 -399l343 -343q37 -37 37 -90t-37.5 -90.5t-90.5 -37.5q-54 0 -90 38l-343 342q-179 -124 -399 -124q-143 0 -273.5 55.5t-225 150t-150 225t-55.5 273.5z M256 704q0 -185 131.5 -316.5t316.5 -131.5t316.5 131.5t131.5 316.5t-131.5 316.5t-316.5 131.5t-316.5 -131.5t-131.5 -316.5zM384 672v64q0 13 9.5 22.5t22.5 9.5h224v224q0 13 9.5 22.5t22.5 9.5h64q13 0 22.5 -9.5t9.5 -22.5v-224h224q13 0 22.5 -9.5t9.5 -22.5v-64 q0 -13 -9.5 -22.5t-22.5 -9.5h-224v-224q0 -13 -9.5 -22.5t-22.5 -9.5h-64q-13 0 -22.5 9.5t-9.5 22.5v224h-224q-13 0 -22.5 9.5t-9.5 22.5z" />
<glyph unicode=")" horiz-adv-x="1664" d="M0 704q0 143 55.5 273.5t150 225t225 150t273.5 55.5t273.5 -55.5t225 -150t150 -225t55.5 -273.5q0 -220 -124 -399l343 -343q37 -37 37 -90t-37.5 -90.5t-90.5 -37.5q-54 0 -90 38l-343 342q-179 -124 -399 -124q-143 0 -273.5 55.5t-225 150t-150 225t-55.5 273.5z M256 704q0 -185 131.5 -316.5t316.5 -131.5t316.5 131.5t131.5 316.5t-131.5 316.5t-316.5 131.5t-316.5 -131.5t-131.5 -316.5zM384 672v64q0 13 9.5 22.5t22.5 9.5h576q13 0 22.5 -9.5t9.5 -22.5v-64q0 -13 -9.5 -22.5t-22.5 -9.5h-576q-13 0 -22.5 9.5t-9.5 22.5z" />
<glyph unicode="*" d="M0 640q0 182 80.5 343t226.5 270q43 32 95.5 25t83.5 -50q32 -42 24.5 -94.5t-49.5 -84.5q-98 -74 -151.5 -181t-53.5 -228q0 -104 40.5 -198.5t109.5 -163.5t163.5 -109.5t198.5 -40.5t198.5 40.5t163.5 109.5t109.5 163.5t40.5 198.5q0 121 -53.5 228t-151.5 181 q-42 32 -49.5 84.5t24.5 94.5q31 43 84 50t95 -25q146 -109 226.5 -270t80.5 -343q0 -156 -61 -298t-164 -245t-245 -164t-298 -61t-298 61t-245 164t-164 245t-61 298zM640 768v640q0 52 38 90t90 38t90 -38t38 -90v-640q0 -52 -38 -90t-90 -38t-90 38t-38 90z" />
<glyph unicode="+" horiz-adv-x="1792" d="M0 -96v192q0 14 9 23t23 9h192q14 0 23 -9t9 -23v-192q0 -14 -9 -23t-23 -9h-192q-14 0 -23 9t-9 23zM384 -96v320q0 14 9 23t23 9h192q14 0 23 -9t9 -23v-320q0 -14 -9 -23t-23 -9h-192q-14 0 -23 9t-9 23zM768 -96v576q0 14 9 23t23 9h192q14 0 23 -9t9 -23v-576 q0 -14 -9 -23t-23 -9h-192q-14 0 -23 9t-9 23zM1152 -96v960q0 14 9 23t23 9h192q14 0 23 -9t9 -23v-960q0 -14 -9 -23t-23 -9h-192q-14 0 -23 9t-9 23zM1536 -96v1472q0 14 9 23t23 9h192q14 0 23 -9t9 -23v-1472q0 -14 -9 -23t-23 -9h-192q-14 0 -23 9t-9 23z" />
<glyph unicode="," d="M0 531v222q0 12 8 23t19 13l186 28q14 46 39 92q-40 57 -107 138q-10 12 -10 24q0 10 9 23q26 36 98.5 107.5t94.5 71.5q13 0 26 -10l138 -107q44 23 91 38q16 136 29 186q7 28 36 28h222q14 0 24.5 -8.5t11.5 -21.5l28 -184q49 -16 90 -37l142 107q9 9 24 9q13 0 25 -10 q129 -119 165 -170q7 -8 7 -22q0 -12 -8 -23q-15 -21 -51 -66.5t-54 -70.5q26 -50 41 -98l183 -28q13 -2 21 -12.5t8 -23.5v-222q0 -12 -8 -23t-20 -13l-185 -28q-19 -54 -39 -91q35 -50 107 -138q10 -12 10 -25t-9 -23q-27 -37 -99 -108t-94 -71q-12 0 -26 9l-138 108 q-44 -23 -91 -38q-16 -136 -29 -186q-7 -28 -36 -28h-222q-14 0 -24.5 8.5t-11.5 21.5l-28 184q-49 16 -90 37l-141 -107q-10 -9 -25 -9q-14 0 -25 11q-126 114 -165 168q-7 10 -7 23q0 12 8 23q15 21 51 66.5t54 70.5q-27 50 -41 99l-183 27q-13 2 -21 12.5t-8 23.5z M512 640q0 -106 75 -181t181 -75t181 75t75 181t-75 181t-181 75t-181 -75t-75 -181z" />
<glyph unicode="-" horiz-adv-x="1408" d="M0 1056v64q0 20 9 23q23 7 23 9l-32 381l411 -214q19 40 54 63q39 26 79 26h320q40 0 79 -26q38 -26 54 -63l70 -167h309q14 0 23 -9t9 -23v-64q0 -14 -9 -23t-23 -9h-96v-948q0 -83 -47 -143.5t-113 -60.5h-832q-66 0 -113 58.5t-47 141.5v952h-96q-14 0 -23 9t-9 23z M256 76q0 -22 7 -40.5t14.5 -27t10.5 -8.5h832q3 0 10.5 8.5t14.5 27t7 40.5v948h-896v-948zM384 224v576q0 14 9 23t23 9h64q14 0 23 -9t9 -23v-576q0 -14 -9 -23t-23 -9h-64q-14 0 -23 9t-9 23zM480 1152h448l-48 117q-7 9 -17 11h-317q-10 -2 -17 -11zM640 224v576 q0 14 9 23t23 9h64q14 0 23 -9t9 -23v-576q0 -14 -9 -23t-23 -9h-64q-14 0 -23 9t-9 23zM896 224v576q0 14 9 23t23 9h64q14 0 23 -9t9 -23v-576q0 -14 -9 -23t-23 -9h-64q-14 0 -23 9t-9 23z" />
<glyph unicode="." horiz-adv-x="1664" d="M26 636.5q1 13.5 11 21.5l719 599q32 26 76 26t76 -26l244 -204v195q0 14 9 23t23 9h192q14 0 23 -9t9 -23v-408l219 -182q10 -8 11 -21.5t-7 -23.5l-62 -74q-8 -9 -21 -11h-3q-13 0 -21 7l-692 577l-692 -577q-12 -8 -24 -7q-13 2 -21 11l-62 74q-8 10 -7 23.5zM256 64 v480q0 1 0.5 3t0.5 3l575 474l575 -474q1 -2 1 -6v-480q0 -26 -19 -45t-45 -19h-384v384h-256v-384h-384q-26 0 -45 19t-19 45z" />
<glyph unicode="/" horiz-adv-x="1280" d="M0 -32v1344q0 40 28 68t68 28h640q40 0 88 -20t76 -48l312 -312q28 -28 48 -76t20 -88v-896q0 -40 -28 -68t-68 -28h-1088q-40 0 -68 28t-28 68zM128 0h1024v768h-416q-40 0 -68 28t-28 68v416h-512v-1280zM768 896h376q-10 29 -22 41l-313 313q-12 12 -41 22v-376z" />
<glyph unicode="0" d="M0 640q0 209 103 385.5t279.5 279.5t385.5 103t385.5 -103t279.5 -279.5t103 -385.5t-103 -385.5t-279.5 -279.5t-385.5 -103t-385.5 103t-279.5 279.5t-103 385.5zM224 640q0 -148 73 -273t198 -198t273 -73t273 73t198 198t73 273t-73 273t-198 198t-273 73t-273 -73 t-198 -198t-73 -273zM512 544v64q0 14 9 23t23 9h224v352q0 14 9 23t23 9h64q14 0 23 -9t9 -23v-448q0 -14 -9 -23t-23 -9h-320q-14 0 -23 9t-9 23z" />
<glyph unicode="1" horiz-adv-x="1920" d="M50 73q0 54 26 116l417 1044q8 19 26 33t38 14h339q-13 0 -23 -9.5t-11 -22.5l-15 -192q-1 -14 8 -23t22 -9h166q13 0 22 9t8 23l-15 192q-1 13 -11 22.5t-23 9.5h339q20 0 38 -14t26 -33l417 -1044q26 -62 26 -116q0 -73 -46 -73h-704q13 0 22 9.5t8 22.5l-20 256 q-1 13 -11 22.5t-23 9.5h-272q-13 0 -23 -9.5t-11 -22.5l-20 -256q-1 -13 8 -22.5t22 -9.5h-704q-46 0 -46 73zM809 540q-1 -12 8 -20t21 -8h244q12 0 21 8t8 20v4l-24 320q-1 13 -11 22.5t-23 9.5h-186q-13 0 -23 -9.5t-11 -22.5l-24 -320v-4z" />
<glyph unicode="2" horiz-adv-x="1664" d="M0 96v320q0 40 28 68t68 28h465l135 -136q58 -56 136 -56t136 56l136 136h464q40 0 68 -28t28 -68v-320q0 -40 -28 -68t-68 -28h-1472q-40 0 -68 28t-28 68zM325 985q17 39 59 39h256v448q0 26 19 45t45 19h256q26 0 45 -19t19 -45v-448h256q42 0 59 -39q17 -41 -14 -70 l-448 -448q-18 -19 -45 -19t-45 19l-448 448q-31 29 -14 70zM1152 192q0 -26 19 -45t45 -19t45 19t19 45t-19 45t-45 19t-45 -19t-19 -45zM1408 192q0 -26 19 -45t45 -19t45 19t19 45t-19 45t-45 19t-45 -19t-19 -45z" />
<glyph unicode="3" d="M0 640q0 209 103 385.5t279.5 279.5t385.5 103t385.5 -103t279.5 -279.5t103 -385.5t-103 -385.5t-279.5 -279.5t-385.5 -103t-385.5 103t-279.5 279.5t-103 385.5zM224 640q0 -148 73 -273t198 -198t273 -73t273 73t198 198t73 273t-73 273t-198 198t-273 73t-273 -73 t-198 -198t-73 -273zM418 620q8 20 30 20h192v352q0 14 9 23t23 9h192q14 0 23 -9t9 -23v-352h192q14 0 23 -9t9 -23q0 -12 -10 -24l-319 -319q-11 -9 -23 -9t-23 9l-320 320q-15 16 -7 35z" />
<glyph unicode="4" d="M0 640q0 209 103 385.5t279.5 279.5t385.5 103t385.5 -103t279.5 -279.5t103 -385.5t-103 -385.5t-279.5 -279.5t-385.5 -103t-385.5 103t-279.5 279.5t-103 385.5zM224 640q0 -148 73 -273t198 -198t273 -73t273 73t198 198t73 273t-73 273t-198 198t-273 73t-273 -73 t-198 -198t-73 -273zM416 672q0 12 10 24l319 319q11 9 23 9t23 -9l320 -320q15 -16 7 -35q-8 -20 -30 -20h-192v-352q0 -14 -9 -23t-23 -9h-192q-14 0 -23 9t-9 23v352h-192q-14 0 -23 9t-9 23z" />
<glyph unicode="5" d="M0 64v482q0 62 25 123l238 552q10 25 36.5 42t52.5 17h832q26 0 52.5 -17t36.5 -42l238 -552q25 -61 25 -123v-482q0 -26 -19 -45t-45 -19h-1408q-26 0 -45 19t-19 45zM197 576h316l95 -192h320l95 192h316q-1 3 -2.5 8t-2.5 8l-212 496h-708l-212 -496q-1 -2 -2.5 -8 t-2.5 -8z" />
<glyph unicode="6" d="M0 640q0 209 103 385.5t279.5 279.5t385.5 103t385.5 -103t279.5 -279.5t103 -385.5t-103 -385.5t-279.5 -279.5t-385.5 -103t-385.5 103t-279.5 279.5t-103 385.5zM224 640q0 -148 73 -273t198 -198t273 -73t273 73t198 198t73 273t-73 273t-198 198t-273 73t-273 -73 t-198 -198t-73 -273zM512 320v640q0 37 32 56q33 18 64 -1l544 -320q32 -18 32 -55t-32 -55l-544 -320q-15 -9 -32 -9q-16 0 -32 8q-32 19 -32 56z" />
<glyph unicode="7" d="M0 640q0 156 61 298t164 245t245 164t298 61q147 0 284.5 -55.5t244.5 -156.5l130 129q29 31 70 14q39 -17 39 -59v-448q0 -26 -19 -45t-45 -19h-448q-42 0 -59 40q-17 39 14 69l138 138q-148 137 -349 137q-104 0 -198.5 -40.5t-163.5 -109.5t-109.5 -163.5 t-40.5 -198.5t40.5 -198.5t109.5 -163.5t163.5 -109.5t198.5 -40.5q119 0 225 52t179 147q7 10 23 12q14 0 25 -9l137 -138q9 -8 9.5 -20.5t-7.5 -22.5q-109 -132 -264 -204.5t-327 -72.5q-156 0 -298 61t-245 164t-164 245t-61 298z" />
<glyph unicode="8" d="M0 0v448q0 26 19 45t45 19h448q26 0 45 -19t19 -45t-19 -45l-137 -137q71 -66 161 -102t187 -36q134 0 250 65t186 179q11 17 53 117q8 23 30 23h192q13 0 22.5 -9.5t9.5 -22.5q0 -5 -1 -7q-64 -268 -268 -434.5t-478 -166.5q-146 0 -282.5 55t-243.5 157l-129 -129 q-19 -19 -45 -19t-45 19t-19 45zM18 800v7q65 268 270 434.5t480 166.5q146 0 284 -55.5t245 -156.5l130 129q19 19 45 19t45 -19t19 -45v-448q0 -26 -19 -45t-45 -19h-448q-26 0 -45 19t-19 45t19 45l138 138q-148 137 -349 137q-134 0 -250 -65t-186 -179 q-11 -17 -53 -117q-8 -23 -30 -23h-199q-13 0 -22.5 9.5t-9.5 22.5z" />
<glyph unicode="9" horiz-adv-x="1792" d="M0 160v1088q0 66 47 113t113 47h1472q66 0 113 -47t47 -113v-1088q0 -66 -47 -113t-113 -47h-1472q-66 0 -113 47t-47 113zM128 160q0 -13 9.5 -22.5t22.5 -9.5h1472q13 0 22.5 9.5t9.5 22.5v832q0 13 -9.5 22.5t-22.5 9.5h-1472q-13 0 -22.5 -9.5t-9.5 -22.5v-832z M256 288v64q0 13 9.5 22.5t22.5 9.5h64q13 0 22.5 -9.5t9.5 -22.5v-64q0 -13 -9.5 -22.5t-22.5 -9.5h-64q-13 0 -22.5 9.5t-9.5 22.5zM256 544v64q0 13 9.5 22.5t22.5 9.5h64q13 0 22.5 -9.5t9.5 -22.5v-64q0 -13 -9.5 -22.5t-22.5 -9.5h-64q-13 0 -22.5 9.5t-9.5 22.5z M256 800v64q0 13 9.5 22.5t22.5 9.5h64q13 0 22.5 -9.5t9.5 -22.5v-64q0 -13 -9.5 -22.5t-22.5 -9.5h-64q-13 0 -22.5 9.5t-9.5 22.5zM512 288v64q0 13 9.5 22.5t22.5 9.5h960q13 0 22.5 -9.5t9.5 -22.5v-64q0 -13 -9.5 -22.5t-22.5 -9.5h-960q-13 0 -22.5 9.5t-9.5 22.5z M512 544v64q0 13 9.5 22.5t22.5 9.5h960q13 0 22.5 -9.5t9.5 -22.5v-64q0 -13 -9.5 -22.5t-22.5 -9.5h-960q-13 0 -22.5 9.5t-9.5 22.5zM512 800v64q0 13 9.5 22.5t22.5 9.5h960q13 0 22.5 -9.5t9.5 -22.5v-64q0 -13 -9.5 -22.5t-22.5 -9.5h-960q-13 0 -22.5 9.5t-9.5 22.5z " />
<glyph unicode=":" horiz-adv-x="1152" d="M0 96v576q0 40 28 68t68 28h32v192q0 184 132 316t316 132t316 -132t132 -316v-192h32q40 0 68 -28t28 -68v-576q0 -40 -28 -68t-68 -28h-960q-40 0 -68 28t-28 68zM320 768h512v192q0 106 -75 181t-181 75t-181 -75t-75 -181v-192z" />
<glyph unicode=";" horiz-adv-x="1792" d="M64 1280q0 53 37.5 90.5t90.5 37.5t90.5 -37.5t37.5 -90.5q0 -72 -64 -110v-1266q0 -13 -9.5 -22.5t-22.5 -9.5h-64q-13 0 -22.5 9.5t-9.5 22.5v1266q-64 38 -64 110zM320 320v742q0 32 31 55q21 14 79 43q236 120 421 120q107 0 200 -29t219 -88q38 -19 88 -19 q54 0 117.5 21t110 47t88 47t54.5 21q26 0 45 -19t19 -45v-763q0 -25 -12.5 -38.5t-39.5 -27.5q-215 -116 -369 -116q-61 0 -123.5 22t-108.5 48t-115.5 48t-142.5 22q-192 0 -464 -146q-17 -9 -33 -9q-26 0 -45 19t-19 45z" />
<glyph unicode="&#x3c;" horiz-adv-x="1664" d="M0 650q0 151 67 291t179 242.5t266 163.5t320 61t320 -61t266 -163.5t179 -242.5t67 -291q0 -166 -60 -314l-20 -49l-185 -33q-22 -83 -90.5 -136.5t-156.5 -53.5v-32q0 -14 -9 -23t-23 -9h-64q-14 0 -23 9t-9 23v576q0 14 9 23t23 9h64q14 0 23 -9t9 -23v-32 q71 0 130 -35.5t93 -95.5l68 12q29 95 29 193q0 148 -88 279t-236.5 209t-315.5 78t-315.5 -78t-236.5 -209t-88 -279q0 -98 29 -193l68 -12q34 60 93 95.5t130 35.5v32q0 14 9 23t23 9h64q14 0 23 -9t9 -23v-576q0 -14 -9 -23t-23 -9h-64q-14 0 -23 9t-9 23v32 q-88 0 -156.5 53.5t-90.5 136.5l-185 33l-20 49q-60 148 -60 314z" />
<glyph unicode="=" horiz-adv-x="768" d="M0 448v384q0 26 19 45t45 19h262l333 333q19 19 45 19t45 -19t19 -45v-1088q0 -26 -19 -45t-45 -19t-45 19l-333 333h-262q-26 0 -45 19t-19 45z" />
<glyph unicode="&#x3e;" horiz-adv-x="1152" d="M0 448v384q0 26 19 45t45 19h262l333 333q19 19 45 19t45 -19t19 -45v-1088q0 -26 -19 -45t-45 -19t-45 19l-333 333h-262q-26 0 -45 19t-19 45zM908 464q0 21 12 35.5t29 25t34 23t29 35.5t12 57t-12 57t-29 35.5t-34 23t-29 25t-12 35.5q0 27 19 45.5t45 18.5 q15 0 25 -5q70 -27 112.5 -93t42.5 -142t-42.5 -141.5t-112.5 -93.5q-10 -5 -25 -5q-26 0 -45 18.5t-19 45.5z" />
<glyph unicode="?" horiz-adv-x="1664" d="M0 448v384q0 26 19 45t45 19h262l333 333q19 19 45 19t45 -19t19 -45v-1088q0 -26 -19 -45t-45 -19t-45 19l-333 333h-262q-26 0 -45 19t-19 45zM908 464q0 21 12 35.5t29 25t34 23t29 35.5t12 57t-12 57t-29 35.5t-34 23t-29 25t-12 35.5q0 27 19 45.5t45 18.5 q15 0 25 -5q70 -27 112.5 -93t42.5 -142t-42.5 -141.5t-112.5 -93.5q-10 -5 -25 -5q-26 0 -45 18.5t-19 45.5zM1008 228q0 39 39 59q56 29 76 44q74 54 115.5 135.5t41.5 173.5t-41.5 173.5t-115.5 135.5q-20 15 -76 44q-39 20 -39 59q0 26 19 45t45 19q13 0 26 -5 q140 -59 225 -188.5t85 -282.5t-85 -282.5t-225 -188.5q-13 -5 -25 -5q-27 0 -46 19t-19 45zM1109 -7q0 36 39 59q7 4 22.5 10.5t22.5 10.5q46 25 82 51q123 91 192 227t69 289t-69 289t-192 227q-36 26 -82 51q-7 4 -22.5 10.5t-22.5 10.5q-39 23 -39 59q0 26 19 45t45 19 q13 0 26 -5q211 -91 338 -283.5t127 -422.5t-127 -422.5t-338 -283.5q-13 -5 -26 -5q-26 0 -45 19t-19 45z" />
<glyph unicode="@" horiz-adv-x="1408" d="M0 0v640h640v-640h-640zM0 768v640h640v-640h-640zM128 129h384v383h-384v-383zM128 896h384v384h-384v-384zM256 256v128h128v-128h-128zM256 1024v128h128v-128h-128zM768 0v640h384v-128h128v128h128v-384h-384v128h-128v-384h-128zM768 768v640h640v-640h-640z M896 896h384v384h-384v-384zM1024 0v128h128v-128h-128zM1024 1024v128h128v-128h-128zM1280 0v128h128v-128h-128z" />
<glyph unicode="A" horiz-adv-x="1792" d="M0 0v1408h63v-1408h-63zM94 1v1407h32v-1407h-32zM189 1v1407h31v-1407h-31zM346 1v1407h31v-1407h-31zM472 1v1407h62v-1407h-62zM629 1v1407h31v-1407h-31zM692 1v1407h31v-1407h-31zM755 1v1407h31v-1407h-31zM880 1v1407h63v-1407h-63zM1037 1v1407h63v-1407h-63z M1163 1v1407h63v-1407h-63zM1289 1v1407h63v-1407h-63zM1383 1v1407h63v-1407h-63zM1541 1v1407h94v-1407h-94zM1666 1v1407h32v-1407h-32zM1729 0v1408h63v-1408h-63z" />
<glyph unicode="B" d="M0 864v416q0 52 38 90t90 38h416q53 0 117 -26.5t102 -64.5l715 -714q37 -39 37 -91q0 -53 -37 -90l-491 -492q-39 -37 -91 -37q-53 0 -90 37l-715 716q-38 37 -64.5 101t-26.5 117zM192 1088q0 -53 37.5 -90.5t90.5 -37.5t90.5 37.5t37.5 90.5t-37.5 90.5t-90.5 37.5 t-90.5 -37.5t-37.5 -90.5z" />
<glyph unicode="C" horiz-adv-x="1920" d="M0 864v416q0 52 38 90t90 38h416q53 0 117 -26.5t102 -64.5l715 -714q37 -39 37 -91q0 -53 -37 -90l-491 -492q-39 -37 -91 -37q-53 0 -90 37l-715 716q-38 37 -64.5 101t-26.5 117zM192 1088q0 -53 37.5 -90.5t90.5 -37.5t90.5 37.5t37.5 90.5t-37.5 90.5t-90.5 37.5 t-90.5 -37.5t-37.5 -90.5zM704 1408h224q53 0 117 -26.5t102 -64.5l715 -714q37 -39 37 -91q0 -53 -37 -90l-491 -492q-39 -37 -91 -37q-36 0 -59 14t-53 45l470 470q37 37 37 90q0 52 -37 91l-715 714q-38 38 -102 64.5t-117 26.5z" />
<glyph unicode="D" horiz-adv-x="1664" d="M10 184q0 4 3 27t4 37q1 8 -3 21.5t-3 19.5q2 11 8 21t16.5 23.5t16.5 23.5q23 38 45 91.5t30 91.5q3 10 0.5 30t-0.5 28q3 11 17 28t17 23q21 36 42 92t25 90q1 9 -2.5 32t0.5 28q4 13 22 30.5t22 22.5q19 26 42.5 84.5t27.5 96.5q1 8 -3 25.5t-2 26.5q2 8 9 18t18 23 t17 21q8 12 16.5 30.5t15 35t16 36t19.5 32t26.5 23.5t36 11.5t47.5 -5.5l-1 -3q38 9 51 9h761q74 0 114 -56q26 -36 26 -80q0 -24 -8 -50l-274 -906q-36 -119 -71.5 -153.5t-128.5 -34.5h-869q-27 0 -38 -15q-11 -16 -1 -43q24 -70 144 -70h923q29 0 56 15.5t35 41.5 l300 987q5 17 5 42v15q38 -15 59 -43q26 -37 25 -80q0 -24 -7 -49l-275 -906q-19 -64 -76.5 -107.5t-122.5 -43.5h-923q-77 0 -148.5 53.5t-99.5 131.5q-13 35 -13 68q0 30 11 59zM492 800q-2 -5 -2 -10q0 -6 4 -12q6 -10 20 -10h608q13 0 25.5 9.5t16.5 22.5l21 64 q4 13 -2 22.5t-20 9.5h-608q-13 0 -25.5 -9.5t-16.5 -22.5zM575 1056q-2 -5 -2 -10q0 -6 4 -12q6 -10 20 -10h608q13 0 25.5 9.5t16.5 22.5l21 64q2 5 2 10q0 6 -4 12q-6 10 -20 10h-608q-13 0 -25.5 -9.5t-16.5 -22.5z" />
<glyph unicode="E" horiz-adv-x="1280" d="M0 7v1289q0 34 19.5 62t52.5 41q21 9 44 9h1048q23 0 44 -9q33 -13 52.5 -41t19.5 -62v-1289q0 -34 -19.5 -62t-52.5 -41q-19 -8 -44 -8q-48 0 -83 32l-441 424l-441 -424q-36 -33 -83 -33q-23 0 -44 9q-33 13 -52.5 41t-19.5 62z" />
<glyph unicode="F" horiz-adv-x="1664" d="M0 160v416q0 79 56.5 135.5t135.5 56.5h64v544q0 40 28 68t68 28h672q40 0 88 -20t76 -48l152 -152q28 -28 48 -76t20 -88v-256h64q79 0 135.5 -56.5t56.5 -135.5v-416q0 -13 -9.5 -22.5t-22.5 -9.5h-224v-160q0 -40 -28 -68t-68 -28h-960q-40 0 -68 28t-28 68v160h-224 q-13 0 -22.5 9.5t-9.5 22.5zM384 0h896v256h-896v-256zM384 640h896v384h-160q-40 0 -68 28t-28 68v160h-640v-640zM1408 576q0 -26 19 -45t45 -19t45 19t19 45t-19 45t-45 19t-45 -19t-19 -45z" />
<glyph unicode="G" horiz-adv-x="1920" d="M0 128v896q0 106 75 181t181 75h224l51 136q19 49 69.5 84.5t103.5 35.5h512q53 0 103.5 -35.5t69.5 -84.5l51 -136h224q106 0 181 -75t75 -181v-896q0 -106 -75 -181t-181 -75h-1408q-106 0 -181 75t-75 181zM512 576q0 -185 131.5 -316.5t316.5 -131.5t316.5 131.5 t131.5 316.5t-131.5 316.5t-316.5 131.5t-316.5 -131.5t-131.5 -316.5zM672 576q0 119 84.5 203.5t203.5 84.5t203.5 -84.5t84.5 -203.5t-84.5 -203.5t-203.5 -84.5t-203.5 84.5t-84.5 203.5z" />
<glyph unicode="H" horiz-adv-x="1664" d="M0 -128l2 79q22 7 80 18q89 16 110 31q20 16 48 68l237 616l280 724h75h53l11 -21l205 -480q103 -242 124 -297q39 -102 96 -235q26 -58 65 -164q24 -67 65 -149q22 -49 35 -57q22 -19 69 -23q47 -6 103 -27q6 -39 6 -57q0 -14 -1 -26q-80 0 -192 8q-93 8 -189 8 q-79 0 -135 -2l-200 -11l-58 -2q0 45 4 78l131 28q56 13 68 23q12 12 12 27t-6 32l-47 114l-92 228l-450 2q-29 -65 -104 -274q-23 -64 -23 -84q0 -31 17 -43q26 -21 103 -32q3 0 13.5 -2t30 -5t40.5 -6q1 -28 1 -58q0 -17 -2 -27q-66 0 -349 20l-48 -8q-81 -14 -167 -14 h-21zM555 527q73 -1 153.5 -2t119 -1.5t52.5 -0.5l29 2q-32 95 -92 241q-53 132 -92 211z" />
<glyph unicode="I" horiz-adv-x="1408" d="M0 -128l2 94q45 9 68 12q77 12 123 31q17 27 21 51q9 66 9 194l-2 497q-5 256 -9 404q-1 87 -11 109q-1 4 -12 12q-18 12 -69 15q-30 2 -114 13l-4 83l260 6l380 13l45 1q5 0 14 0.5t14 0.5q1 0 21.5 -0.5t40.5 -0.5h74q88 0 191 -27q43 -13 96 -39q57 -29 102 -76 q44 -47 65 -104t21 -122q0 -70 -32 -128t-95 -105q-26 -20 -150 -77q177 -41 267 -146q92 -106 92 -236q0 -76 -29 -161q-21 -62 -71 -117q-66 -72 -140 -108q-73 -36 -203 -60q-65 -12 -151 -12q-23 0 -47 1l-197 4h-25q-88 0 -273 -11q-33 -3 -272 -11zM533 1292 q0 -44 2 -77q6 -107 6 -240v-39l-1 -98q0 -43 1 -77q43 -7 109 -7q175 0 264 65t89 224q0 112 -85 187q-84 75 -255 75q-52 0 -130 -13zM540 329l3 -270q0 -15 12 -44q76 -32 140 -32q131 0 216 41t122 113q38 70 38 181q0 114 -41 180q-58 94 -141 126q-80 32 -247 32 q-74 0 -101 -10v-144z" />
<glyph unicode="J" horiz-adv-x="1024" d="M0 -126l17 85q4 1 77 20q76 19 116 39q29 37 41 101l27 139l56 268l12 64q8 44 17 84.5t16 67t12.5 46.5t9 30.5t3.5 11.5l29 157l16 63l22 135l8 50v38q-41 22 -144 28q-28 2 -38 4l19 103l317 -14q39 -2 73 -2q66 0 214 9q33 2 68 4.5t36 2.5q-2 -19 -6 -38 q-7 -29 -13 -51q-55 -19 -109 -31q-64 -16 -101 -31q-12 -31 -24 -88q-9 -44 -13 -82q-44 -199 -66 -306l-61 -311l-38 -158l-43 -235l-12 -45q-2 -7 1 -27q64 -15 119 -21q36 -5 66 -10q-1 -29 -7 -58q-7 -31 -9 -41q-18 0 -23 -1q-24 -2 -42 -2q-9 0 -28 3q-19 4 -145 17 l-198 2h-7q-44 0 -167 -11q-74 -7 -98 -9z" />
<glyph unicode="K" horiz-adv-x="1792" d="M0 1023v297v86l81 1l54 -27q20 -5 211 -5h130l19 3l115 1l215 -1h293l34 -2q14 -1 28 7t21 16l7 8l42 1q15 0 28 -1v-105l1 -131l1 -100l-1 -58q0 -32 -4 -51q-39 -15 -68 -18q-25 43 -54 128q-8 24 -15.5 62.5t-11.5 65.5t-6 29q-13 15 -27 19q-7 2 -42.5 2t-103.5 -1 t-111 -1q-34 0 -67 -5q-8 -81 -8 -121v-15l1 -152v-332l3 -359l-1 -147v-7q0 -42 11 -78q49 -25 89 -32q2 0 18 -5t44 -13t43 -12q30 -8 50 -18q5 -45 5 -50q0 -10 -3 -29q-14 -1 -34 -1q-110 0 -187 10q-72 8 -238 8q-88 0 -233 -14q-48 -4 -70 -4q-2 22 -2 26l-1 26v9 q21 33 79 49q139 38 159 50q9 21 12 56q6 154 6 339v94l-5 428q-1 41 -1 80v39q0 56 0.5 102t-1.5 57t-6 15q-6 5 -14 6q-38 6 -148 6q-43 0 -100 -13.5t-73 -24.5q-13 -9 -22 -33t-22 -75t-24 -84q-6 -19 -19.5 -32t-20.5 -13q-44 27 -56 44zM1414 110q9 18 42 18h80v1024 h-80q-33 0 -42 18q-3 6 -3 13q0 14 14 32l126 162q20 26 49 26t49 -26l126 -162q14 -18 14 -32q0 -7 -3 -13q-9 -18 -42 -18h-80v-1024h80q33 0 42 -18q3 -6 3 -13q0 -14 -14 -32l-126 -162q-20 -26 -49 -26t-49 26l-126 162q-14 18 -14 32q0 7 3 13z" />
<glyph unicode="L" d="M0 1023v297v86l81 1l54 -27q20 -5 211 -5h130l19 3l115 1l446 -1h318l34 -2q14 -1 28 7t21 16l7 8l42 1q15 0 28 -1v-105l1 -131l1 -100l-1 -58q0 -32 -4 -51q-39 -15 -68 -18q-25 43 -54 128q-8 24 -15.5 62.5t-11.5 65.5t-6 29q-13 15 -27 19q-7 2 -58.5 2t-138.5 -1 t-128 -1q-94 0 -127 -5q-8 -81 -8 -121v-15l1 -152v52l3 -359l-1 -147v-7q0 -42 11 -78q49 -25 89 -32q2 0 18 -5t44 -13t43 -12q30 -8 50 -18q5 -45 5 -50q0 -10 -3 -29q-14 -1 -34 -1q-110 0 -187 10q-72 8 -238 8q-82 0 -233 -13q-45 -5 -70 -5q-2 22 -2 26l-1 26v9 q21 33 79 49q139 38 159 50q9 21 12 56q6 137 6 433l-5 44q0 265 -2 278q-2 11 -6 15q-6 5 -14 6q-38 6 -148 6q-50 0 -168.5 -14t-132.5 -24q-13 -9 -22 -33t-22 -75t-24 -84q-6 -19 -19.5 -32t-20.5 -13q-44 27 -56 44zM5 64q0 29 26 49l162 126q18 14 32 14q7 0 13 -3 q18 -9 18 -42v-80h1024v80q0 33 18 42q6 3 13 3q14 0 32 -14l162 -126q26 -20 26 -49t-26 -49l-162 -126q-18 -14 -32 -14q-7 0 -13 3q-18 9 -18 42v80h-1024v-80q0 -33 -18 -42q-6 -3 -13 -3q-14 0 -32 14l-162 126q-26 20 -26 49z" />
<glyph unicode="M" horiz-adv-x="1792" d="M0 64v128q0 26 19 45t45 19h1664q26 0 45 -19t19 -45v-128q0 -26 -19 -45t-45 -19h-1664q-26 0 -45 19t-19 45zM0 448v128q0 26 19 45t45 19h1280q26 0 45 -19t19 -45v-128q0 -26 -19 -45t-45 -19h-1280q-26 0 -45 19t-19 45zM0 832v128q0 26 19 45t45 19h1536 q26 0 45 -19t19 -45v-128q0 -26 -19 -45t-45 -19h-1536q-26 0 -45 19t-19 45zM0 1216v128q0 26 19 45t45 19h1152q26 0 45 -19t19 -45v-128q0 -26 -19 -45t-45 -19h-1152q-26 0 -45 19t-19 45z" />
<glyph unicode="N" horiz-adv-x="1792" d="M0 64v128q0 26 19 45t45 19h1664q26 0 45 -19t19 -45v-128q0 -26 -19 -45t-45 -19h-1664q-26 0 -45 19t-19 45zM128 832v128q0 26 19 45t45 19h1408q26 0 45 -19t19 -45v-128q0 -26 -19 -45t-45 -19h-1408q-26 0 -45 19t-19 45zM384 448v128q0 26 19 45t45 19h896 q26 0 45 -19t19 -45v-128q0 -26 -19 -45t-45 -19h-896q-26 0 -45 19t-19 45zM512 1216v128q0 26 19 45t45 19h640q26 0 45 -19t19 -45v-128q0 -26 -19 -45t-45 -19h-640q-26 0 -45 19t-19 45z" />
<glyph unicode="O" horiz-adv-x="1792" d="M0 64v128q0 26 19 45t45 19h1664q26 0 45 -19t19 -45v-128q0 -26 -19 -45t-45 -19h-1664q-26 0 -45 19t-19 45zM128 832v128q0 26 19 45t45 19h1536q26 0 45 -19t19 -45v-128q0 -26 -19 -45t-45 -19h-1536q-26 0 -45 19t-19 45zM384 448v128q0 26 19 45t45 19h1280 q26 0 45 -19t19 -45v-128q0 -26 -19 -45t-45 -19h-1280q-26 0 -45 19t-19 45zM512 1216v128q0 26 19 45t45 19h1152q26 0 45 -19t19 -45v-128q0 -26 -19 -45t-45 -19h-1152q-26 0 -45 19t-19 45z" />
<glyph unicode="P" horiz-adv-x="1792" d="M0 64v128q0 26 19 45t45 19h1664q26 0 45 -19t19 -45v-128q0 -26 -19 -45t-45 -19h-1664q-26 0 -45 19t-19 45zM0 448v128q0 26 19 45t45 19h1664q26 0 45 -19t19 -45v-128q0 -26 -19 -45t-45 -19h-1664q-26 0 -45 19t-19 45zM0 832v128q0 26 19 45t45 19h1664 q26 0 45 -19t19 -45v-128q0 -26 -19 -45t-45 -19h-1664q-26 0 -45 19t-19 45zM0 1216v128q0 26 19 45t45 19h1664q26 0 45 -19t19 -45v-128q0 -26 -19 -45t-45 -19h-1664q-26 0 -45 19t-19 45z" />
<glyph unicode="Q" horiz-adv-x="1792" d="M0 32v192q0 13 9.5 22.5t22.5 9.5h192q13 0 22.5 -9.5t9.5 -22.5v-192q0 -13 -9.5 -22.5t-22.5 -9.5h-192q-13 0 -22.5 9.5t-9.5 22.5zM0 416v192q0 13 9.5 22.5t22.5 9.5h192q13 0 22.5 -9.5t9.5 -22.5v-192q0 -13 -9.5 -22.5t-22.5 -9.5h-192q-13 0 -22.5 9.5 t-9.5 22.5zM0 800v192q0 13 9.5 22.5t22.5 9.5h192q13 0 22.5 -9.5t9.5 -22.5v-192q0 -13 -9.5 -22.5t-22.5 -9.5h-192q-13 0 -22.5 9.5t-9.5 22.5zM0 1184v192q0 13 9.5 22.5t22.5 9.5h192q13 0 22.5 -9.5t9.5 -22.5v-192q0 -13 -9.5 -22.5t-22.5 -9.5h-192 q-13 0 -22.5 9.5t-9.5 22.5zM384 32v192q0 13 9.5 22.5t22.5 9.5h1344q13 0 22.5 -9.5t9.5 -22.5v-192q0 -13 -9.5 -22.5t-22.5 -9.5h-1344q-13 0 -22.5 9.5t-9.5 22.5zM384 416v192q0 13 9.5 22.5t22.5 9.5h1344q13 0 22.5 -9.5t9.5 -22.5v-192q0 -13 -9.5 -22.5 t-22.5 -9.5h-1344q-13 0 -22.5 9.5t-9.5 22.5zM384 800v192q0 13 9.5 22.5t22.5 9.5h1344q13 0 22.5 -9.5t9.5 -22.5v-192q0 -13 -9.5 -22.5t-22.5 -9.5h-1344q-13 0 -22.5 9.5t-9.5 22.5zM384 1184v192q0 13 9.5 22.5t22.5 9.5h1344q13 0 22.5 -9.5t9.5 -22.5v-192 q0 -13 -9.5 -22.5t-22.5 -9.5h-1344q-13 0 -22.5 9.5t-9.5 22.5z" />
<glyph unicode="R" horiz-adv-x="1792" d="M0 32v192q0 13 9.5 22.5t22.5 9.5h1728q13 0 22.5 -9.5t9.5 -22.5v-192q0 -13 -9.5 -22.5t-22.5 -9.5h-1728q-13 0 -22.5 9.5t-9.5 22.5zM0 1184v192q0 13 9.5 22.5t22.5 9.5h1728q13 0 22.5 -9.5t9.5 -22.5v-192q0 -13 -9.5 -22.5t-22.5 -9.5h-1728q-13 0 -22.5 9.5 t-9.5 22.5zM32 704q0 14 9 23l288 288q9 9 23 9q13 0 22.5 -9.5t9.5 -22.5v-576q0 -13 -9.5 -22.5t-22.5 -9.5q-14 0 -23 9l-288 288q-9 9 -9 23zM640 416v192q0 13 9.5 22.5t22.5 9.5h1088q13 0 22.5 -9.5t9.5 -22.5v-192q0 -13 -9.5 -22.5t-22.5 -9.5h-1088 q-13 0 -22.5 9.5t-9.5 22.5zM640 800v192q0 13 9.5 22.5t22.5 9.5h1088q13 0 22.5 -9.5t9.5 -22.5v-192q0 -13 -9.5 -22.5t-22.5 -9.5h-1088q-13 0 -22.5 9.5t-9.5 22.5z" />
<glyph unicode="S" horiz-adv-x="1792" d="M0 32v192q0 13 9.5 22.5t22.5 9.5h1728q13 0 22.5 -9.5t9.5 -22.5v-192q0 -13 -9.5 -22.5t-22.5 -9.5h-1728q-13 0 -22.5 9.5t-9.5 22.5zM0 416v576q0 13 9.5 22.5t22.5 9.5q14 0 23 -9l288 -288q9 -9 9 -23t-9 -23l-288 -288q-9 -9 -23 -9q-13 0 -22.5 9.5t-9.5 22.5z M0 1184v192q0 13 9.5 22.5t22.5 9.5h1728q13 0 22.5 -9.5t9.5 -22.5v-192q0 -13 -9.5 -22.5t-22.5 -9.5h-1728q-13 0 -22.5 9.5t-9.5 22.5zM640 416v192q0 13 9.5 22.5t22.5 9.5h1088q13 0 22.5 -9.5t9.5 -22.5v-192q0 -13 -9.5 -22.5t-22.5 -9.5h-1088q-13 0 -22.5 9.5 t-9.5 22.5zM640 800v192q0 13 9.5 22.5t22.5 9.5h1088q13 0 22.5 -9.5t9.5 -22.5v-192q0 -13 -9.5 -22.5t-22.5 -9.5h-1088q-13 0 -22.5 9.5t-9.5 22.5z" />
<glyph unicode="T" horiz-adv-x="1792" d="M0 288v704q0 119 84.5 203.5t203.5 84.5h704q119 0 203.5 -84.5t84.5 -203.5v-165l403 402q18 19 45 19q12 0 25 -5q39 -17 39 -59v-1088q0 -42 -39 -59q-13 -5 -25 -5q-27 0 -45 19l-403 403v-166q0 -119 -84.5 -203.5t-203.5 -84.5h-704q-119 0 -203.5 84.5 t-84.5 203.5z" />
<glyph unicode="U" horiz-adv-x="1920" d="M0 32v1216q0 66 47 113t113 47h1600q66 0 113 -47t47 -113v-1216q0 -66 -47 -113t-113 -47h-1600q-66 0 -113 47t-47 113zM128 32q0 -13 9.5 -22.5t22.5 -9.5h1600q13 0 22.5 9.5t9.5 22.5v1216q0 13 -9.5 22.5t-22.5 9.5h-1600q-13 0 -22.5 -9.5t-9.5 -22.5v-1216z M256 128v192l320 320l160 -160l512 512l416 -416v-448h-1408zM256 960q0 80 56 136t136 56t136 -56t56 -136t-56 -136t-136 -56t-136 56t-56 136z" />
<glyph unicode="V" d="M0 -128v416l832 832l416 -416l-832 -832h-416zM128 128h128v-128h107l91 91l-235 235l-91 -91v-107zM298 384q0 -22 22 -22q10 0 17 7l542 542q7 7 7 17q0 22 -22 22q-10 0 -17 -7l-542 -542q-7 -7 -7 -17zM896 1184l166 165q36 38 90 38q53 0 91 -38l235 -234 q37 -39 37 -91q0 -53 -37 -90l-166 -166z" />
<glyph unicode="W" horiz-adv-x="1024" d="M0 896q0 212 150 362t362 150t362 -150t150 -362q0 -109 -33 -179l-364 -774q-16 -33 -47.5 -52t-67.5 -19t-67.5 19t-46.5 52l-365 774q-33 70 -33 179zM256 896q0 -106 75 -181t181 -75t181 75t75 181t-75 181t-181 75t-181 -75t-75 -181z" />
<glyph unicode="X" d="M0 640q0 209 103 385.5t279.5 279.5t385.5 103t385.5 -103t279.5 -279.5t103 -385.5t-103 -385.5t-279.5 -279.5t-385.5 -103t-385.5 103t-279.5 279.5t-103 385.5zM224 640q0 -148 73 -273t198 -198t273 -73v1088q-148 0 -273 -73t-198 -198t-73 -273z" />
<glyph unicode="Y" horiz-adv-x="1024" d="M0 512q0 145 81 275q6 9 62.5 90.5t101 151t99.5 178t83 201.5q9 30 34 47t51 17t51.5 -17t33.5 -47q28 -93 83 -201.5t99.5 -178t101 -151t62.5 -90.5q81 -127 81 -275q0 -212 -150 -362t-362 -150t-362 150t-150 362zM256 384q0 -53 37.5 -90.5t90.5 -37.5t90.5 37.5 t37.5 90.5q0 36 -20 69q-1 1 -15.5 22.5t-25.5 38t-25 44t-21 50.5q-4 16 -21 16t-21 -16q-7 -23 -21 -50.5t-25 -44t-25.5 -38t-15.5 -22.5q-20 -33 -20 -69z" />
<glyph unicode="Z" horiz-adv-x="1792" d="M0 288v832q0 119 84.5 203.5t203.5 84.5h832q63 0 117 -25q15 -7 18 -23q3 -17 -9 -29l-49 -49q-14 -14 -32 -8q-23 6 -45 6h-832q-66 0 -113 -47t-47 -113v-832q0 -66 47 -113t113 -47h832q66 0 113 47t47 113v126q0 13 9 22l64 64q15 15 35 7t20 -29v-190 q0 -119 -84.5 -203.5t-203.5 -84.5h-832q-119 0 -203.5 84.5t-84.5 203.5zM640 256v288l672 672l288 -288l-672 -672h-288zM736 448h96v-96h56l116 116l-152 152l-116 -116v-56zM944 688q8 -8 16 -8t17 9l350 350q17 17 1 33t-33 -1l-350 -350q-9 -9 -9 -17t8 -16z M1376 1280l92 92q28 28 68 28t68 -28l152 -152q28 -28 28 -68t-28 -68l-92 -92z" />
<glyph unicode="[" horiz-adv-x="1664" d="M0 288v832q0 119 84.5 203.5t203.5 84.5h255q13 0 22.5 -9.5t9.5 -22.5q0 -27 -26 -32q-77 -26 -133 -60q-10 -4 -16 -4h-112q-66 0 -113 -47t-47 -113v-832q0 -66 47 -113t113 -47h832q66 0 113 47t47 113v214q0 19 18 29q28 13 54 37q16 16 35 8q21 -9 21 -29v-259 q0 -119 -84.5 -203.5t-203.5 -84.5h-832q-119 0 -203.5 84.5t-84.5 203.5zM256 704q0 49 3.5 91t14 90t28 88t47 81.5t68.5 74t94.5 61.5t124.5 48.5t159.5 30.5t196.5 11h160v192q0 42 39 59q13 5 25 5q26 0 45 -19l384 -384q19 -19 19 -45t-19 -45l-384 -384 q-18 -19 -45 -19q-12 0 -25 5q-39 17 -39 59v192h-160q-323 0 -438 -131q-119 -137 -74 -473q3 -23 -20 -34q-8 -2 -12 -2q-16 0 -26 13q-10 14 -21 31t-39.5 68.5t-49.5 99.5t-38.5 114t-17.5 122z" />
<glyph unicode="\" horiz-adv-x="1664" d="M0 288v832q0 119 84.5 203.5t203.5 84.5h832q63 0 117 -25q15 -7 18 -23q3 -17 -9 -29l-49 -49q-10 -10 -23 -10q-3 0 -9 2q-23 6 -45 6h-832q-66 0 -113 -47t-47 -113v-832q0 -66 47 -113t113 -47h832q66 0 113 47t47 113v254q0 13 9 22l64 64q10 10 23 10q6 0 12 -3 q20 -8 20 -29v-318q0 -119 -84.5 -203.5t-203.5 -84.5h-832q-119 0 -203.5 84.5t-84.5 203.5zM257 768q0 33 24 57l110 110q24 24 57 24t57 -24l263 -263l647 647q24 24 57 24t57 -24l110 -110q24 -24 24 -57t-24 -57l-814 -814q-24 -24 -57 -24t-57 24l-430 430 q-24 24 -24 57z" />
<glyph unicode="]" horiz-adv-x="1792" d="M0 640q0 26 19 45l256 256q19 19 45 19t45 -19t19 -45v-128h384v384h-128q-26 0 -45 19t-19 45t19 45l256 256q19 19 45 19t45 -19l256 -256q19 -19 19 -45t-19 -45t-45 -19h-128v-384h384v128q0 26 19 45t45 19t45 -19l256 -256q19 -19 19 -45t-19 -45l-256 -256 q-19 -19 -45 -19t-45 19t-19 45v128h-384v-384h128q26 0 45 -19t19 -45t-19 -45l-256 -256q-19 -19 -45 -19t-45 19l-256 256q-19 19 -19 45t19 45t45 19h128v384h-384v-128q0 -26 -19 -45t-45 -19t-45 19l-256 256q-19 19 -19 45z" />
<glyph unicode="^" horiz-adv-x="1024" d="M0 -64v1408q0 26 19 45t45 19h128q26 0 45 -19t19 -45v-678q4 11 13 19l710 710q19 19 32 13t13 -32v-1472q0 -26 -13 -32t-32 13l-710 710q-9 9 -13 19v-678q0 -26 -19 -45t-45 -19h-128q-26 0 -45 19t-19 45z" />
<glyph unicode="_" horiz-adv-x="1792" d="M0 -64v1408q0 26 19 45t45 19h128q26 0 45 -19t19 -45v-678q4 11 13 19l710 710q19 19 32 13t13 -32v-710q4 11 13 19l710 710q19 19 32 13t13 -32v-1472q0 -26 -13 -32t-32 13l-710 710q-9 9 -13 19v-710q0 -26 -13 -32t-32 13l-710 710q-9 9 -13 19v-678q0 -26 -19 -45 t-45 -19h-128q-26 0 -45 19t-19 45z" />
<glyph unicode="`" horiz-adv-x="1664" d="M122 640q0 26 19 45l710 710q19 19 32 13t13 -32v-710q5 11 13 19l710 710q19 19 32 13t13 -32v-1472q0 -26 -13 -32t-32 13l-710 710q-8 9 -13 19v-710q0 -26 -13 -32t-32 13l-710 710q-19 19 -19 45z" />
<glyph unicode="a" horiz-adv-x="1408" d="M0 -96v1472q0 26 16 36q7 4 16 4q11 0 24 -7l1328 -738q23 -13 23 -31t-23 -31l-1328 -738q-13 -7 -24 -7q-8 0 -16 4q-16 10 -16 36z" />
<glyph unicode="b" d="M0 -64v1408q0 26 19 45t45 19h512q26 0 45 -19t19 -45v-1408q0 -26 -19 -45t-45 -19h-512q-26 0 -45 19t-19 45zM896 -64v1408q0 26 19 45t45 19h512q26 0 45 -19t19 -45v-1408q0 -26 -19 -45t-45 -19h-512q-26 0 -45 19t-19 45z" />
<glyph unicode="c" d="M0 -64v1408q0 26 19 45t45 19h1408q26 0 45 -19t19 -45v-1408q0 -26 -19 -45t-45 -19h-1408q-26 0 -45 19t-19 45z" />
<glyph unicode="d" horiz-adv-x="1664" d="M0 -96v1472q0 26 13 32q3 1 7 1q11 0 25 -14l710 -710q8 -8 13 -19v710q0 26 13 32q3 1 7 1q11 0 25 -14l710 -710q19 -19 19 -45t-19 -45l-710 -710q-14 -14 -25 -14q-3 0 -7 1q-13 6 -13 32v710q-5 -10 -13 -19l-710 -710q-14 -14 -25 -14q-3 0 -7 1q-13 6 -13 32z" />
<glyph unicode="e" horiz-adv-x="1792" d="M0 -96v1472q0 26 13 32q3 1 7 1q11 0 25 -14l710 -710q8 -8 13 -19v710q0 26 13 32q3 1 7 1q11 0 25 -14l710 -710q8 -8 13 -19v678q0 26 19 45t45 19h128q26 0 45 -19t19 -45v-1408q0 -26 -19 -45t-45 -19h-128q-26 0 -45 19t-19 45v678q-5 -10 -13 -19l-710 -710 q-14 -14 -25 -14q-3 0 -7 1q-13 6 -13 32v710q-5 -10 -13 -19l-710 -710q-14 -14 -25 -14q-3 0 -7 1q-13 6 -13 32z" />
<glyph unicode="f" horiz-adv-x="1024" d="M0 -96v1472q0 26 13 32q3 1 7 1q11 0 25 -14l710 -710q8 -8 13 -19v678q0 26 19 45t45 19h128q26 0 45 -19t19 -45v-1408q0 -26 -19 -45t-45 -19h-128q-26 0 -45 19t-19 45v678q-5 -10 -13 -19l-710 -710q-14 -14 -25 -14q-4 0 -7 1q-13 6 -13 32z" />
<glyph unicode="g" horiz-adv-x="1538" d="M1 64v256q0 26 19 45t45 19h1408q26 0 45 -19t19 -45v-256q0 -26 -19 -45t-45 -19h-1408q-26 0 -45 19t-19 45zM1 525q-1 3 -1 7q0 11 14 25l710 710q19 19 45 19t45 -19l710 -710q14 -14 14 -25q0 -4 -1 -7q-6 -13 -32 -13h-1472q-26 0 -32 13z" />
<glyph unicode="h" horiz-adv-x="1152" d="M53 704.5q0 53.5 37 90.5l652 651q37 37 90.5 37t90.5 -37l75 -75q37 -37 37 -90.5t-37 -90.5l-486 -486l486 -485q37 -38 37 -91t-37 -90l-75 -75q-37 -37 -90.5 -37t-90.5 37l-652 651q-37 37 -37 90.5z" />
<glyph unicode="i" horiz-adv-x="1152" d="M117 128q0 53 37 90l486 486l-486 485q-37 39 -37 91q0 53 37 90l76 75q36 38 90 38t90 -38l652 -651q37 -37 37 -90q0 -52 -37 -91l-652 -651q-37 -37 -90 -37t-90 37l-76 75q-37 39 -37 91z" />
<glyph unicode="j" d="M0 640q0 209 103 385.5t279.5 279.5t385.5 103t385.5 -103t279.5 -279.5t103 -385.5t-103 -385.5t-279.5 -279.5t-385.5 -103t-385.5 103t-279.5 279.5t-103 385.5zM320 576q0 -26 19 -45t45 -19h256v-256q0 -26 19 -45t45 -19h128q26 0 45 19t19 45v256h256q26 0 45 19 t19 45v128q0 26 -19 45t-45 19h-256v256q0 26 -19 45t-45 19h-128q-26 0 -45 -19t-19 -45v-256h-256q-26 0 -45 -19t-19 -45v-128z" />
<glyph unicode="k" d="M0 640q0 209 103 385.5t279.5 279.5t385.5 103t385.5 -103t279.5 -279.5t103 -385.5t-103 -385.5t-279.5 -279.5t-385.5 -103t-385.5 103t-279.5 279.5t-103 385.5zM320 576q0 -26 19 -45t45 -19h768q26 0 45 19t19 45v128q0 26 -19 45t-45 19h-768q-26 0 -45 -19 t-19 -45v-128z" />
<glyph unicode="l" d="M0 640q0 209 103 385.5t279.5 279.5t385.5 103t385.5 -103t279.5 -279.5t103 -385.5t-103 -385.5t-279.5 -279.5t-385.5 -103t-385.5 103t-279.5 279.5t-103 385.5zM387 414q0 -27 19 -46l90 -90q19 -19 46 -19q26 0 45 19l181 181l181 -181q19 -19 45 -19q27 0 46 19 l90 90q19 19 19 46q0 26 -19 45l-181 181l181 181q19 19 19 45q0 27 -19 46l-90 90q-19 19 -46 19q-26 0 -45 -19l-181 -181l-181 181q-19 19 -45 19q-27 0 -46 -19l-90 -90q-19 -19 -19 -46q0 -26 19 -45l181 -181l-181 -181q-19 -19 -19 -45z" />
<glyph unicode="m" d="M0 640q0 209 103 385.5t279.5 279.5t385.5 103t385.5 -103t279.5 -279.5t103 -385.5t-103 -385.5t-279.5 -279.5t-385.5 -103t-385.5 103t-279.5 279.5t-103 385.5zM252 621q0 -27 18 -45l362 -362q19 -19 45 -19q27 0 46 19l543 543q18 18 18 45q0 28 -18 46l-91 90 q-19 19 -45 19t-45 -19l-408 -407l-226 226q-19 19 -45 19t-45 -19l-91 -90q-18 -18 -18 -46z" />
<glyph unicode="n" d="M0 640q0 209 103 385.5t279.5 279.5t385.5 103t385.5 -103t279.5 -279.5t103 -385.5t-103 -385.5t-279.5 -279.5t-385.5 -103t-385.5 103t-279.5 279.5t-103 385.5zM417 939q-6 -9 -6 -18q0 -13 14 -24l132 -100q7 -6 19 -6q16 0 25 12q53 68 86 92q34 24 86 24 q48 0 85.5 -26t37.5 -59q0 -38 -20 -61t-68 -45q-63 -28 -115.5 -86.5t-52.5 -125.5v-36q0 -14 9 -23t23 -9h192q14 0 23 9t9 23q0 19 21.5 49.5t54.5 49.5q32 18 49 28.5t46 35t44.5 48t28 60.5t12.5 81q0 88 -55.5 163t-138.5 116t-170 41q-243 0 -371 -213zM640 160 q0 -14 9 -23t23 -9h192q14 0 23 9t9 23v192q0 14 -9 23t-23 9h-192q-14 0 -23 -9t-9 -23v-192z" />
<glyph unicode="o" d="M0 640q0 209 103 385.5t279.5 279.5t385.5 103t385.5 -103t279.5 -279.5t103 -385.5t-103 -385.5t-279.5 -279.5t-385.5 -103t-385.5 103t-279.5 279.5t-103 385.5zM512 160q0 -14 9 -23t23 -9h448q14 0 23 9t9 23v160q0 14 -9 23t-23 9h-96v512q0 14 -9 23t-23 9h-320 q-14 0 -23 -9t-9 -23v-160q0 -14 9 -23t23 -9h96v-320h-96q-14 0 -23 -9t-9 -23v-160zM640 1056q0 -14 9 -23t23 -9h192q14 0 23 9t9 23v160q0 14 -9 23t-23 9h-192q-14 0 -23 -9t-9 -23v-160z" />
<glyph unicode="p" d="M0 576v128q0 26 19 45t45 19h143q37 161 154.5 278.5t278.5 154.5v143q0 26 19 45t45 19h128q26 0 45 -19t19 -45v-143q161 -37 278.5 -154.5t154.5 -278.5h143q26 0 45 -19t19 -45v-128q0 -26 -19 -45t-45 -19h-143q-37 -161 -154.5 -278.5t-278.5 -154.5v-143 q0 -26 -19 -45t-45 -19h-128q-26 0 -45 19t-19 45v143q-161 37 -278.5 154.5t-154.5 278.5h-143q-26 0 -45 19t-19 45zM339 512q32 -108 112.5 -188.5t188.5 -112.5v109q0 26 19 45t45 19h128q26 0 45 -19t19 -45v-109q108 32 188.5 112.5t112.5 188.5h-109q-26 0 -45 19 t-19 45v128q0 26 19 45t45 19h109q-32 108 -112.5 188.5t-188.5 112.5v-109q0 -26 -19 -45t-45 -19h-128q-26 0 -45 19t-19 45v109q-108 -32 -188.5 -112.5t-112.5 -188.5h109q26 0 45 -19t19 -45v-128q0 -26 -19 -45t-45 -19h-109z" />
<glyph unicode="q" d="M0 640q0 209 103 385.5t279.5 279.5t385.5 103t385.5 -103t279.5 -279.5t103 -385.5t-103 -385.5t-279.5 -279.5t-385.5 -103t-385.5 103t-279.5 279.5t-103 385.5zM224 640q0 -148 73 -273t198 -198t273 -73t273 73t198 198t73 273t-73 273t-198 198t-273 73t-273 -73 t-198 -198t-73 -273zM429 480q0 13 10 23l137 137l-137 137q-10 10 -10 23t10 23l146 146q10 10 23 10t23 -10l137 -137l137 137q10 10 23 10t23 -10l146 -146q10 -10 10 -23t-10 -23l-137 -137l137 -137q10 -10 10 -23t-10 -23l-146 -146q-10 -10 -23 -10t-23 10l-137 137 l-137 -137q-10 -10 -23 -10t-23 10l-146 146q-10 10 -10 23z" />
<glyph unicode="r" d="M0 640q0 209 103 385.5t279.5 279.5t385.5 103t385.5 -103t279.5 -279.5t103 -385.5t-103 -385.5t-279.5 -279.5t-385.5 -103t-385.5 103t-279.5 279.5t-103 385.5zM224 640q0 -148 73 -273t198 -198t273 -73t273 73t198 198t73 273t-73 273t-198 198t-273 73t-273 -73 t-198 -198t-73 -273zM346 640q0 26 19 45l102 102q19 19 45 19t45 -19l147 -147l275 275q19 19 45 19t45 -19l102 -102q19 -19 19 -45t-19 -45l-422 -422q-19 -19 -45 -19t-45 19l-294 294q-19 19 -19 45z" />
<glyph unicode="s" d="M0 643q0 157 61 299.5t163.5 245.5t245 164t298.5 61t298.5 -61t245 -164t163.5 -245.5t61 -299.5t-61 -300t-163.5 -246t-245 -164t-298.5 -61t-298.5 61t-245 164t-163.5 246t-61 300zM224 643q0 -162 89 -299l755 754q-135 91 -300 91q-148 0 -273 -73t-198 -199 t-73 -274zM471 185q137 -89 297 -89q111 0 211.5 43.5t173.5 116.5t116 174.5t43 212.5q0 161 -87 295z" />
<glyph unicode="t" d="M64 576q0 52 37 91l651 650q38 38 91 38q52 0 90 -38l75 -74q38 -38 38 -91t-38 -91l-293 -293h704q52 0 84.5 -37.5t32.5 -90.5v-128q0 -53 -32.5 -90.5t-84.5 -37.5h-704l293 -294q38 -36 38 -90t-38 -90l-75 -76q-37 -37 -90 -37q-52 0 -91 37l-651 652q-37 37 -37 90 z" />
<glyph unicode="u" d="M0 512v128q0 53 32.5 90.5t84.5 37.5h704l-293 294q-38 36 -38 90t38 90l75 75q38 38 90 38q53 0 91 -38l651 -651q37 -35 37 -90q0 -54 -37 -91l-651 -651q-39 -37 -91 -37q-51 0 -90 37l-75 75q-38 38 -38 91t38 91l293 293h-704q-52 0 -84.5 37.5t-32.5 90.5z" />
<glyph unicode="v" horiz-adv-x="1664" d="M53 565q0 53 38 91l651 651q35 37 90 37q54 0 91 -37l651 -651q37 -39 37 -91q0 -51 -37 -90l-75 -75q-38 -38 -91 -38q-54 0 -90 38l-294 293v-704q0 -52 -37.5 -84.5t-90.5 -32.5h-128q-53 0 -90.5 32.5t-37.5 84.5v704l-294 -293q-36 -38 -90 -38t-90 38l-75 75 q-38 38 -38 90z" />
<glyph unicode="w" horiz-adv-x="1664" d="M53 704q0 53 38 91l74 75q39 37 91 37q53 0 90 -37l294 -294v704q0 52 38 90t90 38h128q52 0 90 -38t38 -90v-704l294 294q37 37 90 37q52 0 91 -37l75 -75q37 -39 37 -91q0 -53 -37 -90l-651 -652q-39 -37 -91 -37q-53 0 -90 37l-651 652q-38 36 -38 90z" />
<glyph unicode="x" horiz-adv-x="1792" d="M0 416q0 199 53 333q162 403 875 403h224v256q0 26 19 45t45 19t45 -19l512 -512q19 -19 19 -45t-19 -45l-512 -512q-19 -19 -45 -19t-45 19t-19 45v256h-224q-98 0 -175.5 -6t-154 -21.5t-133 -42.5t-105.5 -69.5t-80 -101t-48.5 -138.5t-17.5 -181q0 -55 5 -123 q0 -6 2.5 -23.5t2.5 -26.5q0 -15 -8.5 -25t-23.5 -10q-16 0 -28 17q-7 9 -13 22t-13.5 30t-10.5 24q-127 285 -127 451z" />
<glyph unicode="y" d="M0 -64v448q0 26 19 45t45 19t45 -19l144 -144l332 332q10 10 23 10t23 -10l114 -114q10 -10 10 -23t-10 -23l-332 -332l144 -144q19 -19 19 -45t-19 -45t-45 -19h-448q-26 0 -45 19t-19 45zM781 800q0 13 10 23l332 332l-144 144q-19 19 -19 45t19 45t45 19h448 q26 0 45 -19t19 -45v-448q0 -26 -19 -45t-45 -19t-45 19l-144 144l-332 -332q-10 -10 -23 -10t-23 10l-114 114q-10 10 -10 23z" />
<glyph unicode="z" d="M13 32q0 13 10 23l332 332l-144 144q-19 19 -19 45t19 45t45 19h448q26 0 45 -19t19 -45v-448q0 -26 -19 -45t-45 -19t-45 19l-144 144l-332 -332q-10 -10 -23 -10t-23 10l-114 114q-10 10 -10 23zM768 704v448q0 26 19 45t45 19t45 -19l144 -144l332 332q10 10 23 10 t23 -10l114 -114q10 -10 10 -23t-10 -23l-332 -332l144 -144q19 -19 19 -45t-19 -45t-45 -19h-448q-26 0 -45 19t-19 45z" />
<glyph unicode="{" horiz-adv-x="1408" d="M0 608v192q0 40 28 68t68 28h416v416q0 40 28 68t68 28h192q40 0 68 -28t28 -68v-416h416q40 0 68 -28t28 -68v-192q0 -40 -28 -68t-68 -28h-416v-416q0 -40 -28 -68t-68 -28h-192q-40 0 -68 28t-28 68v416h-416q-40 0 -68 28t-28 68z" />
<glyph unicode="|" horiz-adv-x="1408" d="M0 608v192q0 40 28 68t68 28h1216q40 0 68 -28t28 -68v-192q0 -40 -28 -68t-68 -28h-1216q-40 0 -68 28t-28 68z" />
<glyph unicode="}" horiz-adv-x="1664" d="M122.5 408.5q13.5 51.5 59.5 77.5l266 154l-266 154q-46 26 -59.5 77.5t12.5 97.5l64 110q26 46 77.5 59.5t97.5 -12.5l266 -153v307q0 52 38 90t90 38h128q52 0 90 -38t38 -90v-307l266 153q46 26 97.5 12.5t77.5 -59.5l64 -110q26 -46 12.5 -97.5t-59.5 -77.5 l-266 -154l266 -154q46 -26 59.5 -77.5t-12.5 -97.5l-64 -110q-26 -46 -77.5 -59.5t-97.5 12.5l-266 153v-307q0 -52 -38 -90t-90 -38h-128q-52 0 -90 38t-38 90v307l-266 -153q-46 -26 -97.5 -12.5t-77.5 59.5l-64 110q-26 46 -12.5 97.5z" />
<glyph unicode="~" d="M0 640q0 209 103 385.5t279.5 279.5t385.5 103t385.5 -103t279.5 -279.5t103 -385.5t-103 -385.5t-279.5 -279.5t-385.5 -103t-385.5 103t-279.5 279.5t-103 385.5zM624 1126l17 -621q0 -10 10 -17.5t24 -7.5h185q14 0 23.5 7.5t10.5 17.5l18 621q0 12 -10 18 q-10 8 -24 8h-220q-14 0 -24 -8q-10 -6 -10 -18zM640 161q0 -13 10 -23t23 -10h192q13 0 22 9.5t9 23.5v190q0 14 -9 23.5t-22 9.5h-192q-13 0 -23 -10t-10 -23v-190z" />
<glyph d="M0 544v320q0 14 9 23t23 9h440q-93 0 -158.5 65.5t-65.5 158.5t65.5 158.5t158.5 65.5q107 0 168 -77l128 -165l128 165q61 77 168 77q93 0 158.5 -65.5t65.5 -158.5t-65.5 -158.5t-158.5 -65.5h440q14 0 23 -9t9 -23v-320q0 -14 -9 -23t-23 -9h-96v-416q0 -40 -28 -68 t-68 -28h-1088q-40 0 -68 28t-28 68v416h-96q-14 0 -23 9t-9 23zM376 1120q0 -40 28 -68t68 -28h195l-126 161q-26 31 -69 31q-40 0 -68 -28t-28 -68zM608 180q0 -25 18 -38.5t46 -13.5h192q28 0 46 13.5t18 38.5v56v468v192h-320v-192v-468v-56zM870 1024h194q40 0 68 28 t28 68t-28 68t-68 28q-43 0 -69 -31z" />
<glyph unicode="&#xa0;" d="M0 160v960q0 119 84.5 203.5t203.5 84.5h960q119 0 203.5 -84.5t84.5 -203.5v-960q0 -119 -84.5 -203.5t-203.5 -84.5h-960q-119 0 -203.5 84.5t-84.5 203.5z" />
<glyph unicode="&#xa1;" d="M0 -64v448q0 42 40 59q39 17 69 -14l144 -144l355 355l-355 355l-144 -144q-19 -19 -45 -19q-12 0 -24 5q-40 17 -40 59v448q0 26 19 45t45 19h448q42 0 59 -40q17 -39 -14 -69l-144 -144l355 -355l355 355l-144 144q-31 30 -14 69q17 40 59 40h448q26 0 45 -19t19 -45 v-448q0 -42 -39 -59q-13 -5 -25 -5q-26 0 -45 19l-144 144l-355 -355l355 -355l144 144q29 31 70 14q39 -17 39 -59v-448q0 -26 -19 -45t-45 -19h-448q-42 0 -59 40q-17 39 14 69l144 144l-355 355l-355 -355l144 -144q31 -30 14 -69q-17 -40 -59 -40h-448q-26 0 -45 19 t-19 45z" />
<glyph unicode="&#xa2;" horiz-adv-x="1664" d="M0 928v128q0 40 28 68t68 28h288v96q0 66 47 113t113 47h576q66 0 113 -47t47 -113v-96h288q40 0 68 -28t28 -68v-128q0 -71 -41.5 -143t-112 -130t-173 -97.5t-215.5 -44.5q-42 -54 -95 -95q-38 -34 -52.5 -72.5t-14.5 -89.5q0 -54 30.5 -91t97.5 -37q75 0 133.5 -45.5 t58.5 -114.5v-64q0 -14 -9 -23t-23 -9h-832q-14 0 -23 9t-9 23v64q0 69 58.5 114.5t133.5 45.5q67 0 97.5 37t30.5 91q0 51 -14.5 89.5t-52.5 72.5q-53 41 -95 95q-113 5 -215.5 44.5t-173 97.5t-112 130t-41.5 143zM128 928q0 -78 94.5 -162t235.5 -113q-74 162 -74 371 h-256v-96zM1206 653q141 29 235.5 113t94.5 162v96h-256q0 -209 -74 -371z" />
<glyph unicode="&#xa3;" d="M0 160v960q0 119 84.5 203.5t203.5 84.5h960q119 0 203.5 -84.5t84.5 -203.5v-960q0 -119 -84.5 -203.5t-203.5 -84.5h-224q-16 0 -24.5 1t-19.5 5t-16 14.5t-5 27.5v239q0 97 -52 142q57 6 102.5 18t94 39t81 66.5t53 105t20.5 150.5q0 121 -79 206q37 91 -8 204 q-28 9 -81 -11t-92 -44l-38 -24q-93 26 -192 26t-192 -26q-16 11 -42.5 27t-83.5 38.5t-86 13.5q-44 -113 -7 -204q-79 -85 -79 -206q0 -85 20.5 -150t52.5 -105t80.5 -67t94 -39t102.5 -18q-40 -36 -49 -103q-21 -10 -45 -15t-57 -5t-65.5 21.5t-55.5 62.5q-19 32 -48.5 52 t-49.5 24l-20 3q-21 0 -29 -4.5t-5 -11.5t9 -14t13 -12l7 -5q22 -10 43.5 -38t31.5 -51l10 -23q13 -38 44 -61.5t67 -30t69.5 -7t55.5 3.5l23 4q0 -38 0.5 -103t0.5 -68q0 -22 -11 -33.5t-22 -13t-33 -1.5h-224q-119 0 -203.5 84.5t-84.5 203.5zM271 315q3 5 13 2 q10 -5 7 -12q-5 -7 -13 -2q-10 5 -7 12zM304 290q6 6 16 -3q9 -11 2 -16q-6 -7 -16 3q-9 11 -2 16zM335 233q-9 13 0 18q9 7 17 -6q9 -12 0 -19q-8 -6 -17 7zM370 206q8 9 20 -3q12 -11 4 -19q-8 -9 -20 3q-13 11 -4 19zM419 168q4 11 19 7q16 -5 13 -16q-4 -12 -19 -6 q-17 4 -13 15zM481 154q0 11 16 11q17 2 17 -11q0 -11 -16 -11q-17 -2 -17 11zM540 158q-2 12 14 15q16 2 18 -9q2 -10 -14 -14t-18 8z" />
<glyph unicode="&#xa5;" horiz-adv-x="1792" d="M0 128v640q0 53 37.5 90.5t90.5 37.5h288q10 0 21.5 4.5t23.5 14t22.5 18t24 22.5t20.5 21.5t19 21.5t14 17q65 74 100 129q13 21 33 62t37 72t40.5 63t55 49.5t69.5 17.5q125 0 206.5 -67t81.5 -189q0 -68 -22 -128h374q104 0 180 -76t76 -179q0 -105 -75.5 -181 t-180.5 -76h-169q-4 -62 -37 -119q3 -21 3 -43q0 -101 -60 -178q1 -139 -85 -219.5t-227 -80.5q-133 0 -322 69q-164 59 -223 59h-288q-53 0 -90.5 37.5t-37.5 90.5zM128 192q0 -26 19 -45t45 -19t45 19t19 45t-19 45t-45 19t-45 -19t-19 -45zM384 128h32q72 0 167 -32 t193.5 -64t179.5 -32q189 0 189 167q0 26 -5 56q30 16 47.5 52.5t17.5 73.5t-18 69q53 50 53 119q0 25 -10 55.5t-25 47.5h331q52 0 90 38t38 90q0 51 -39 89.5t-89 38.5h-576q0 20 15 48.5t33 55t33 68t15 84.5q0 67 -44.5 97.5t-115.5 30.5q-24 0 -90 -139 q-24 -44 -37 -65q-40 -64 -112 -145q-71 -81 -101 -106q-69 -57 -140 -57h-32v-640z" />
<glyph unicode="&#xa7;" horiz-adv-x="1664" d="M0 -32v320q0 40 28 68t68 28h427q21 -56 70.5 -92t110.5 -36h256q61 0 110.5 36t70.5 92h427q40 0 68 -28t28 -68v-320q0 -40 -28 -68t-68 -28h-1472q-40 0 -68 28t-28 68zM325 936q-17 39 14 69l448 448q18 19 45 19t45 -19l448 -448q31 -30 14 -69q-17 -40 -59 -40 h-256v-448q0 -26 -19 -45t-45 -19h-256q-26 0 -45 19t-19 45v448h-256q-42 0 -59 40zM1152 64q0 -26 19 -45t45 -19t45 19t19 45t-19 45t-45 19t-45 -19t-19 -45zM1408 64q0 -26 19 -45t45 -19t45 19t19 45t-19 45t-45 19t-45 -19t-19 -45z" />
<glyph unicode="&#xa8;" d="M0 640q0 209 103 385.5t279.5 279.5t385.5 103t385.5 -103t279.5 -279.5t103 -385.5q0 -251 -146.5 -451.5t-378.5 -277.5q-27 -5 -39.5 7t-12.5 30v211q0 97 -52 142q57 6 102.5 18t94 39t81 66.5t53 105t20.5 150.5q0 121 -79 206q37 91 -8 204q-28 9 -81 -11t-92 -44 l-38 -24q-93 26 -192 26t-192 -26q-16 11 -42.5 27t-83.5 38.5t-86 13.5q-44 -113 -7 -204q-79 -85 -79 -206q0 -85 20.5 -150t52.5 -105t80.5 -67t94 -39t102.5 -18q-40 -36 -49 -103q-21 -10 -45 -15t-57 -5t-65.5 21.5t-55.5 62.5q-19 32 -48.5 52t-49.5 24l-20 3 q-21 0 -29 -4.5t-5 -11.5t9 -14t13 -12l7 -5q22 -10 43.5 -38t31.5 -51l10 -23q13 -38 44 -61.5t67 -30t69.5 -7t55.5 3.5l23 4q0 -38 0.5 -89t0.5 -54q0 -18 -13 -30t-40 -7q-232 77 -378.5 277.5t-146.5 451.5z" />
<glyph unicode="&#xa9;" d="M0 160v960q0 119 84.5 203.5t203.5 84.5h960q119 0 203.5 -84.5t84.5 -203.5v-960q0 -119 -84.5 -203.5t-203.5 -84.5h-960q-119 0 -203.5 84.5t-84.5 203.5zM256 905q0 -16 2.5 -34t5 -30.5t9 -33t10 -29.5t12.5 -33t11 -30q60 -164 216.5 -320.5t320.5 -216.5 q6 -2 30 -11t33 -12.5t29.5 -10t33 -9t30.5 -5t34 -2.5q57 0 130.5 34t94.5 80q22 53 22 101q0 11 -2 16q-3 8 -38.5 29.5t-88.5 49.5l-53 29q-5 3 -19 13t-25 15t-21 5q-18 0 -47 -32.5t-57 -65.5t-44 -33q-7 0 -16.5 3.5t-15.5 6.5t-17 9.5t-14 8.5q-99 55 -170.5 126.5 t-126.5 170.5q-2 3 -8.5 14t-9.5 17t-6.5 15.5t-3.5 16.5q0 13 20.5 33.5t45 38.5t45 39.5t20.5 36.5q0 10 -5 21t-15 25t-13 19q-3 6 -15 28.5t-25 45.5t-26.5 47.5t-25 40.5t-16.5 18t-16 2q-48 0 -101 -22q-46 -21 -80 -94.5t-34 -130.5z" />
<glyph unicode="&#xaa;" d="M0 640q0 209 103 385.5t279.5 279.5t385.5 103t385.5 -103t279.5 -279.5t103 -385.5t-103 -385.5t-279.5 -279.5t-385.5 -103t-385.5 103t-279.5 279.5t-103 385.5zM252 639q0 -27 18 -45l362 -362l91 -91q18 -18 45 -18t45 18l91 91l362 362q18 18 18 45t-18 45l-91 91 q-18 18 -45 18t-45 -18l-189 -189v502q0 26 -19 45t-45 19h-128q-26 0 -45 -19t-19 -45v-502l-189 189q-19 19 -45 19t-45 -19l-91 -91q-18 -18 -18 -45z" />
<glyph unicode="&#xab;" horiz-adv-x="1792" d="M0 224v672q0 40 20 88t48 76l408 408q28 28 76 48t88 20h416q40 0 68 -28t28 -68v-328q68 40 128 40h416q40 0 68 -28t28 -68v-1216q0 -40 -28 -68t-68 -28h-960q-40 0 -68 28t-28 68v288h-544q-40 0 -68 28t-28 68zM128 256h512v256q0 40 20 88t48 76l316 316v416h-384 v-416q0 -40 -28 -68t-68 -28h-416v-640zM213 1024h299v299zM768 -128h896v1152h-384v-416q0 -40 -28 -68t-68 -28h-416v-640zM853 640h299v299z" />
<glyph unicode="&#xac;" horiz-adv-x="1920" d="M0 671q0 353 124 353q6 0 43.5 -21t97.5 -42.5t119 -21.5q67 0 133 23q-5 -37 -5 -66q0 -139 81 -256q-162 -5 -265 -128h-134q-82 0 -138 40.5t-56 118.5zM128 1280q0 106 75 181t181 75t181 -75t75 -181t-75 -181t-181 -75t-181 75t-75 181zM256 3q0 53 3.5 103.5 t14 109t26.5 108.5t43 97.5t62 81t85.5 53.5t111.5 20q10 0 43 -21.5t73 -48t107 -48t135 -21.5t135 21.5t107 48t73 48t43 21.5q61 0 111.5 -20t85.5 -53.5t62 -81t43 -97.5t26.5 -108.5t14 -109t3.5 -103.5q0 -120 -73 -189.5t-194 -69.5h-874q-121 0 -194 69.5t-73 189.5 zM576 896q0 159 112.5 271.5t271.5 112.5t271.5 -112.5t112.5 -271.5t-112.5 -271.5t-271.5 -112.5t-271.5 112.5t-112.5 271.5zM1280 1280q0 106 75 181t181 75t181 -75t75 -181t-75 -181t-181 -75t-181 75t-75 181zM1327 640q81 117 81 256q0 29 -5 66q66 -23 133 -23 q59 0 119 21.5t97.5 42.5t43.5 21q124 0 124 -353q0 -78 -56 -118.5t-138 -40.5h-134q-103 123 -265 128z" />
<glyph unicode="&#xad;" horiz-adv-x="1408" d="M0 1056v64q0 20 9 23q23 7 23 9l-32 381l411 -214q19 40 54 63q39 26 79 26h320q40 0 79 -26q38 -26 54 -63l70 -167h309q14 0 23 -9t9 -23v-64q0 -14 -9 -23t-23 -9h-96v-948q0 -83 -47 -143.5t-113 -60.5h-832q-66 0 -113 58.5t-47 141.5v952h-96q-14 0 -23 9t-9 23z M256 76q0 -22 7 -40.5t14.5 -27t10.5 -8.5h832q3 0 10.5 8.5t14.5 27t7 40.5v948h-896v-948zM384 224v576q0 14 9 23t23 9h64q14 0 23 -9t9 -23v-576q0 -14 -9 -23t-23 -9h-64q-14 0 -23 9t-9 23zM480 1152h448l-48 117q-7 9 -17 11h-317q-10 -2 -17 -11zM640 224v576 q0 14 9 23t23 9h64q14 0 23 -9t9 -23v-576q0 -14 -9 -23t-23 -9h-64q-14 0 -23 9t-9 23zM896 224v576q0 14 9 23t23 9h64q14 0 23 -9t9 -23v-576q0 -14 -9 -23t-23 -9h-64q-14 0 -23 9t-9 23z" />
<glyph unicode="&#xae;" horiz-adv-x="1280" d="M0 7v1289q0 34 19.5 62t52.5 41q21 9 44 9h1048q23 0 44 -9q33 -13 52.5 -41t19.5 -62v-1289q0 -34 -19.5 -62t-52.5 -41q-19 -8 -44 -8q-48 0 -83 32l-441 424l-441 -424q-36 -33 -83 -33q-23 0 -44 9q-33 13 -52.5 41t-19.5 62zM128 38l423 406l89 85l89 -85l423 -406 v1242h-1024v-1242z" />
<glyph unicode="&#xaf;" horiz-adv-x="1920" d="M64 192q0 26 19 45t45 19v416q0 26 13 58t32 51l198 198q19 19 51 32t58 13h160v320q0 26 19 45t45 19h1152q26 0 45 -19t19 -45v-1152q0 -26 -19 -45t-45 -19h-192q0 -106 -75 -181t-181 -75t-181 75t-75 181h-384q0 -106 -75 -181t-181 -75t-181 75t-75 181h-128 q-26 0 -45 19t-19 45zM256 640h384v256h-158q-14 -2 -22 -9l-195 -195q-7 -12 -9 -22v-30zM384 128q0 -53 37.5 -90.5t90.5 -37.5t90.5 37.5t37.5 90.5t-37.5 90.5t-90.5 37.5t-90.5 -37.5t-37.5 -90.5zM896 800q0 -14 9 -23t23 -9h224v-224q0 -14 9 -23t23 -9h192 q14 0 23 9t9 23v224h224q14 0 23 9t9 23v192q0 14 -9 23t-23 9h-224v224q0 14 -9 23t-23 9h-192q-14 0 -23 -9t-9 -23v-224h-224q-14 0 -23 -9t-9 -23v-192zM1280 128q0 -53 37.5 -90.5t90.5 -37.5t90.5 37.5t37.5 90.5t-37.5 90.5t-90.5 37.5t-90.5 -37.5t-37.5 -90.5z" />
<glyph unicode="&#xb0;" d="M0 448v384q0 26 19 45t45 19h448v288q0 26 19 45t45 19t45 -19l544 -544q19 -19 19 -45t-19 -45l-544 -544q-19 -19 -45 -19t-45 19t-19 45v288h-448q-26 0 -45 19t-19 45zM894.5 78.5q0.5 10.5 3 23.5t10 19.5t20.5 6.5h320q66 0 113 47t47 113v704q0 66 -47 113 t-113 47h-288h-11h-13l-12 1l-11 3l-8 6l-7 8l-2 14q0 4 -1 20t-0.5 26.5t3 23.5t10 19.5t20.5 6.5h320q119 0 203.5 -84.5t84.5 -203.5v-704q0 -119 -84.5 -203.5t-203.5 -84.5h-320q-13 0 -22.5 9.5t-9.5 22.5q0 4 -1 20t-0.5 26.5z" />
<glyph unicode="&#xb1;" horiz-adv-x="1792" d="M0 672v192q0 66 47 113t113 47h480q435 0 896 384q52 0 90 -38t38 -90v-384q53 0 90.5 -37.5t37.5 -90.5t-37.5 -90.5t-90.5 -37.5v-384q0 -52 -38 -90t-90 -38q-417 347 -812 380q-58 -19 -91 -66t-31 -100.5t40 -92.5q-20 -33 -23 -65.5t6 -58t33.5 -55t48 -50 t61.5 -50.5q-29 -58 -111.5 -83t-168.5 -11.5t-132 55.5q-7 23 -29.5 87.5t-32 94.5t-23 89t-15 101t3.5 98.5t22 110.5h-122q-66 0 -113 47t-47 113zM768 633q377 -42 768 -341v954q-394 -302 -768 -343v-270z" />
<glyph unicode="&#xb4;" horiz-adv-x="768" d="M0 696v284h170v171q0 182 86 275.5t283 93.5h227v-284h-142q-39 0 -62.5 -6.5t-34 -23.5t-13.5 -34.5t-3 -49.5v-142h257l-30 -284h-227v-824h-341v824h-170z" />
<glyph unicode="&#xb5;" horiz-adv-x="1792" d="M0 769q0 103 76 179t180 76h374q-22 60 -22 128q0 122 81.5 189t206.5 67q38 0 69.5 -17.5t55 -49.5t40.5 -63t37 -72t33 -62q35 -55 100 -129q2 -3 14 -17t19 -21.5t20.5 -21.5t24 -22.5t22.5 -18t23.5 -14t21.5 -4.5h288q53 0 90.5 -37.5t37.5 -90.5v-640 q0 -53 -37.5 -90.5t-90.5 -37.5h-288q-59 0 -223 -59q-190 -69 -317 -69q-142 0 -230 77.5t-87 217.5l1 5q-61 76 -61 178q0 22 3 43q-33 57 -37 119h-169q-105 0 -180.5 76t-75.5 181zM128 768q0 -52 38 -90t90 -38h331q-15 -17 -25 -47.5t-10 -55.5q0 -69 53 -119 q-18 -32 -18 -69t17.5 -73.5t47.5 -52.5q-4 -24 -4 -56q0 -85 48.5 -126t135.5 -41q84 0 183 32t194 64t167 32h32v640h-32q-35 0 -67.5 12t-62.5 37t-50 46t-49 54q-2 3 -3.5 4.5t-4 4.5t-4.5 5q-72 81 -112 145q-14 22 -38 68q-1 3 -10.5 22.5t-18.5 36t-20 35.5 t-21.5 30.5t-18.5 11.5q-71 0 -115.5 -30.5t-44.5 -97.5q0 -43 15 -84.5t33 -68t33 -55t15 -48.5h-576q-50 0 -89 -38.5t-39 -89.5zM1536 192q0 -26 19 -45t45 -19t45 19t19 45t-19 45t-45 19t-45 -19t-19 -45z" />
<glyph unicode="&#xb6;" horiz-adv-x="1408" d="M0 1069q0 92 51 186q56 101 106 122q25 11 68.5 21t70.5 10q14 0 21 -3q18 -6 53 -76q11 -19 30 -54t35 -63.5t31 -53.5q3 -4 17.5 -25t21.5 -35.5t7 -28.5q0 -20 -28.5 -50t-62 -55t-62 -53t-28.5 -46q0 -9 5 -22.5t8.5 -20.5t14 -24t11.5 -19q76 -137 174 -235 t235 -174q2 -1 19 -11.5t24 -14t20.5 -8.5t22.5 -5q18 0 46 28.5t53 62t55 62t50 28.5q14 0 28.5 -7t35.5 -21.5t25 -17.5q25 -15 53.5 -31t63.5 -35t54 -30q70 -35 76 -53q3 -7 3 -21q0 -27 -10 -70.5t-21 -68.5q-21 -50 -122 -106q-94 -51 -186 -51q-27 0 -52.5 3.5 t-57.5 12.5t-47.5 14.5t-55.5 20.5t-49 18q-98 35 -175 83q-128 79 -264.5 215.5t-215.5 264.5q-48 77 -83 175q-3 9 -18 49t-20.5 55.5t-14.5 47.5t-12.5 57.5t-3.5 52.5z" />
<glyph unicode="&#xb7;" d="M0 1217q0 74 51.5 122.5t134.5 48.5t133 -48.5t51 -122.5q1 -73 -50.5 -122t-135.5 -49h-2q-82 0 -132 49t-50 122zM19 -80v991h330v-991h-330zM531 -80q2 399 2 647t-1 296l-1 48h329v-144h-2q20 32 41 56t56.5 52t87 43.5t114.5 15.5q171 0 275 -113.5t104 -332.5v-568 h-329v530q0 105 -40.5 164.5t-126.5 59.5q-63 0 -105.5 -34.5t-63.5 -85.5q-11 -30 -11 -81v-553h-329z" />
<glyph unicode="&#xb8;" d="M0 160v960q0 119 84.5 203.5t203.5 84.5h960q119 0 203.5 -84.5t84.5 -203.5v-960q0 -119 -84.5 -203.5t-203.5 -84.5h-960q-119 0 -203.5 84.5t-84.5 203.5zM256 192q0 -26 19 -45t45 -19h128q26 0 45 19t19 45v320h512v-320q0 -26 19 -45t45 -19h128q26 0 45 19t19 45 v896q0 26 -19 45t-45 19h-128q-26 0 -45 -19t-19 -45v-320h-512v320q0 26 -19 45t-45 19h-128q-26 0 -45 -19t-19 -45v-896z" />
<glyph unicode="&#xba;" d="M0 640q0 209 103 385.5t279.5 279.5t385.5 103t385.5 -103t279.5 -279.5t103 -385.5t-103 -385.5t-279.5 -279.5t-385.5 -103t-385.5 103t-279.5 279.5t-103 385.5zM226 979q7 -7 12 -8q4 -1 5 -9t2.5 -11t11.5 3q9 -8 3 -19q1 1 44 -27q19 -17 21 -21q3 -11 -10 -18 q-1 2 -9 9t-9 4q-3 -5 0.5 -18.5t10.5 -12.5q-7 0 -9.5 -16t-2.5 -35.5t-1 -23.5l2 -1q-3 -12 5.5 -34.5t21.5 -19.5q-13 -3 20 -43q6 -8 8 -9q3 -2 12 -7.5t15 -10t10 -10.5q4 -5 10 -22.5t14 -23.5q-2 -6 9.5 -20t10.5 -23q-1 0 -2.5 -1t-2.5 -1q3 -7 15.5 -14t15.5 -13 q1 -3 2 -10t3 -11t8 -2q2 20 -24 62q-15 25 -17 29q-3 5 -5.5 15.5t-4.5 14.5q2 0 6 -1.5t8.5 -3.5t7.5 -4t2 -3q-3 -7 2 -17.5t12 -18.5t17 -19t12 -13q6 -6 14 -19.5t0 -13.5q9 0 20 -10t17 -20q5 -8 8 -26t5 -24q2 -7 8.5 -13.5t12.5 -9.5l16 -8l13 -7q5 -2 18.5 -10.5 t21.5 -11.5q10 -4 16 -4t14.5 2.5t13.5 3.5q15 2 29 -15t21 -21q36 -19 55 -11q-2 -1 0.5 -7.5t8 -15.5t9 -14.5t5.5 -8.5q5 -6 18 -15t18 -15q6 4 7 9q-3 -8 7 -20t18 -10q14 3 14 32q-31 -15 -49 18q0 1 -2.5 5.5t-4 8.5t-2.5 8.5t0 7.5t5 3q9 0 10 3.5t-2 12.5t-4 13 q-1 8 -11 20t-12 15q-5 -9 -16 -8t-16 9q0 -1 -1.5 -5.5t-1.5 -6.5q-13 0 -15 1q1 3 2.5 17.5t3.5 22.5q1 4 5.5 12t7.5 14.5t4 12.5t-4.5 9.5t-17.5 2.5q-19 -1 -26 -20q-1 -3 -3 -10.5t-5 -11.5t-9 -7q-7 -3 -24 -2t-24 5q-13 8 -22.5 29t-9.5 37q0 10 2.5 26.5t3 25 t-5.5 24.5q3 2 9 9.5t10 10.5q2 1 4.5 1.5t4.5 0t4 1.5t3 6q-1 1 -4 3q-3 3 -4 3q7 -3 28.5 1.5t27.5 -1.5q15 -11 22 2q0 1 -2.5 9.5t-0.5 13.5q5 -27 29 -9q3 -3 15.5 -5t17.5 -5q3 -2 7 -5.5t5.5 -4.5t5 0.5t8.5 6.5q10 -14 12 -24q11 -40 19 -44q7 -3 11 -2t4.5 9.5 t0 14t-1.5 12.5l-1 8v18l-1 8q-15 3 -18.5 12t1.5 18.5t15 18.5q1 1 8 3.5t15.5 6.5t12.5 8q21 19 15 35q7 0 11 9q-1 0 -5 3t-7.5 5t-4.5 2q9 5 2 16q5 3 7.5 11t7.5 10q9 -12 21 -2q7 8 1 16q5 7 20.5 10.5t18.5 9.5q7 -2 8 2t1 12t3 12q4 5 15 9t13 5l17 11q3 4 0 4 q18 -2 31 11q10 11 -6 20q3 6 -3 9.5t-15 5.5q3 1 11.5 0.5t10.5 1.5q15 10 -7 16q-17 5 -43 -12q-2 -1 -9.5 -9.5t-13.5 -9.5q2 0 4.5 5t5 11t3.5 7q6 7 22 15q14 6 52 12q34 8 51 -11q-2 2 9.5 13t14.5 12q3 2 15 4.5t15 7.5l2 22q-12 -1 -17.5 7t-6.5 21q0 -2 -6 -8 q0 7 -4.5 8t-11.5 -1t-9 -1q-10 3 -15 7.5t-8 16.5t-4 15q-2 5 -9.5 10.5t-9.5 10.5q-1 2 -2.5 5.5t-3 6.5t-4 5.5t-5.5 2.5t-7 -5t-7.5 -10t-4.5 -5q-3 2 -6 1.5t-4.5 -1t-4.5 -3t-5 -3.5q-3 -2 -8.5 -3t-8.5 -2q15 5 -1 11q-10 4 -16 3q9 4 7.5 12t-8.5 14h5 q-1 4 -8.5 8.5t-17.5 8.5t-13 6q-8 5 -34 9.5t-33 0.5q-5 -6 -4.5 -10.5t4 -14t3.5 -12.5q1 -6 -5.5 -13t-6.5 -12q0 -7 14 -15.5t10 -21.5q-3 -8 -16 -16t-16 -12q-5 -8 -1.5 -18.5t10.5 -16.5q2 -2 1.5 -4t-3.5 -4.5t-5.5 -4t-6.5 -3.5l-3 -2q-11 -5 -20.5 6t-13.5 26 q-7 25 -16 30q-23 8 -29 -1q-5 13 -41 26q-25 9 -58 4q6 1 0 15q-7 15 -19 12q3 6 4 17.5t1 13.5q3 13 12 23q1 1 7 8.5t9.5 13.5t0.5 6q35 -4 50 11q5 5 11.5 17t10.5 17q9 6 14 5.5t14.5 -5.5t14.5 -5q14 -1 15.5 11t-7.5 20q12 -1 3 17q-5 7 -8 9q-12 4 -27 -5 q-8 -4 2 -8q-1 1 -9.5 -10.5t-16.5 -17.5t-16 5q-1 1 -5.5 13.5t-9.5 13.5q-8 0 -16 -15q3 8 -11 15t-24 8q19 12 -8 27q-7 4 -20.5 5t-19.5 -4q-5 -7 -5.5 -11.5t5 -8t10.5 -5.5t11.5 -4t8.5 -3q14 -10 8 -14q-2 -1 -8.5 -3.5t-11.5 -4.5t-6 -4q-3 -4 0 -14t-2 -14 q-5 5 -9 17.5t-7 16.5q7 -9 -25 -6l-10 1q-4 0 -16 -2t-20.5 -1t-13.5 8q-4 8 0 20q1 4 4 2q-4 3 -11 9.5t-10 8.5q-46 -15 -94 -41q6 -1 12 1q5 2 13 6.5t10 5.5q34 14 42 7l5 5q14 -16 20 -25q-7 4 -30 1q-20 -6 -22 -12q7 -12 5 -18q-4 3 -11.5 10t-14.5 11t-15 5 q-16 0 -22 -1q-146 -80 -235 -222zM877 26q0 -6 2 -16q206 36 351 189q-3 3 -12.5 4.5t-12.5 3.5q-18 7 -24 8q1 7 -2.5 13t-8 9t-12.5 8t-11 7q-2 2 -7 6t-7 5.5t-7.5 4.5t-8.5 2t-10 -1l-3 -1q-3 -1 -5.5 -2.5t-5.5 -3t-4 -3t0 -2.5q-21 17 -36 22q-5 1 -11 5.5t-10.5 7 t-10 1.5t-11.5 -7q-5 -5 -6 -15t-2 -13q-7 5 0 17.5t2 18.5q-3 6 -10.5 4.5t-12 -4.5t-11.5 -8.5t-9 -6.5t-8.5 -5.5t-8.5 -7.5q-3 -4 -6 -12t-5 -11q-2 4 -11.5 6.5t-9.5 5.5q2 -10 4 -35t5 -38q7 -31 -12 -48q-27 -25 -29 -40q-4 -22 12 -26q0 -7 -8 -20.5t-7 -21.5z" />
<glyph unicode="&#xbb;" horiz-adv-x="1408" d="M4 1023q0 159 110 270t269 111q158 0 273 -113l605 -606q10 -10 10 -22q0 -16 -30.5 -46.5t-46.5 -30.5q-13 0 -23 10l-606 607q-79 77 -181 77q-106 0 -179 -75t-73 -181q0 -105 76 -181l776 -777q63 -63 145 -63q64 0 106 42t42 106q0 82 -63 145l-581 581 q-26 24 -60 24q-29 0 -48 -19t-19 -48q0 -32 25 -59l410 -410q10 -10 10 -22q0 -16 -31 -47t-47 -31q-12 0 -22 10l-410 410q-63 61 -63 149q0 82 57 139t139 57q88 0 149 -63l581 -581q100 -98 100 -235q0 -117 -79 -196t-196 -79q-135 0 -235 100l-777 776 q-113 115 -113 271z" />
<glyph unicode="&#xbf;" horiz-adv-x="1792" d="M0 160v480h672v-160q0 -26 19 -45t45 -19h320q26 0 45 19t19 45v160h672v-480q0 -66 -47 -113t-113 -47h-1472q-66 0 -113 47t-47 113zM0 736v384q0 66 47 113t113 47h352v160q0 40 28 68t68 28h576q40 0 68 -28t28 -68v-160h352q66 0 113 -47t47 -113v-384h-1792z M640 1280h512v128h-512v-128zM768 512v128h256v-128h-256z" />
<glyph unicode="&#xc0;" d="M0 64v128q0 26 19 45t45 19h1408q26 0 45 -19t19 -45v-128q0 -26 -19 -45t-45 -19h-1408q-26 0 -45 19t-19 45zM0 576v128q0 26 19 45t45 19h1408q26 0 45 -19t19 -45v-128q0 -26 -19 -45t-45 -19h-1408q-26 0 -45 19t-19 45zM0 1088v128q0 26 19 45t45 19h1408 q26 0 45 -19t19 -45v-128q0 -26 -19 -45t-45 -19h-1408q-26 0 -45 19t-19 45z" />
<glyph unicode="&#xc1;" horiz-adv-x="896" d="M1 551l201 825q4 14 16 23t28 9h328q19 0 32 -12.5t13 -29.5q0 -8 -5 -18l-171 -463l396 98q8 2 12 2q19 0 34 -15q18 -20 7 -44l-540 -1157q-13 -25 -42 -25q-4 0 -14 2q-17 5 -25.5 19t-4.5 30l197 808l-406 -101q-4 -1 -12 -1q-18 0 -31 11q-18 15 -13 39z" />
<glyph unicode="&#xc2;" horiz-adv-x="1792" d="M0 640q0 174 120 321.5t326 233t450 85.5t450 -85.5t326 -233t120 -321.5t-120 -321.5t-326 -233t-450 -85.5q-70 0 -145 8q-198 -175 -460 -242q-49 -14 -114 -22h-5q-15 0 -27 10.5t-16 27.5v1q-3 4 -0.5 12t2 10t4.5 9l6 10l7 8l8 9q7 8 31 34.5t34.5 38t31 39.5 t32.5 51t27 59t26 76q-157 89 -247.5 220t-90.5 281zM128 640q0 -112 71.5 -213.5t201.5 -175.5l87 -50l-27 -96q-24 -91 -70 -172q152 63 275 171l43 38l57 -6q69 -8 130 -8q204 0 381.5 69.5t282 187.5t104.5 255t-104.5 255t-282 187.5t-381.5 69.5t-381.5 -69.5 t-282 -187.5t-104.5 -255z" />
<glyph unicode="&#xc3;" horiz-adv-x="1792" d="M0 128q0 80 56 136t136 56t136 -56t56 -136t-56 -136t-136 -56t-136 56t-56 136zM0 640q0 80 56 136t136 56t136 -56t56 -136t-56 -136t-136 -56t-136 56t-56 136zM0 1152q0 80 56 136t136 56t136 -56t56 -136t-56 -136t-136 -56t-136 56t-56 136zM512 32v192 q0 13 9.5 22.5t22.5 9.5h1216q13 0 22.5 -9.5t9.5 -22.5v-192q0 -13 -9.5 -22.5t-22.5 -9.5h-1216q-13 0 -22.5 9.5t-9.5 22.5zM512 544v192q0 13 9.5 22.5t22.5 9.5h1216q13 0 22.5 -9.5t9.5 -22.5v-192q0 -13 -9.5 -22.5t-22.5 -9.5h-1216q-13 0 -22.5 9.5t-9.5 22.5z M512 1056v192q0 13 9.5 22.5t22.5 9.5h1216q13 0 22.5 -9.5t9.5 -22.5v-192q0 -13 -9.5 -22.5t-22.5 -9.5h-1216q-13 0 -22.5 9.5t-9.5 22.5z" />
<glyph unicode="&#xc4;" horiz-adv-x="1792" d="M0 121q0 35 31 73.5t68 65.5t68 56t31 48q0 4 -14 38t-16 44q-9 51 -9 104q0 115 43.5 220t119 184.5t170.5 139t204 95.5q55 18 145 25.5t179.5 9t178.5 6t163.5 24t113.5 56.5l30 30l29 28l27 20l36 16l44 4q39 0 70.5 -46t47.5 -112t24 -124t8 -96q0 -95 -20 -193 q-46 -224 -184.5 -383t-357.5 -268q-214 -108 -438 -108q-148 0 -286 47q-15 5 -88 42t-96 37q-16 0 -39.5 -32t-45 -70t-52.5 -70t-60 -32q-30 0 -51 11t-31 24t-27 42q-2 4 -6 11t-5.5 10t-3 9.5t-1.5 13.5zM384 448q0 -26 19 -45t45 -19q24 0 45 19q27 24 74 71t67 66 q137 124 268.5 176t313.5 52q26 0 45 19t19 45t-19 45t-45 19q-172 0 -318 -49.5t-259.5 -134t-235.5 -219.5q-19 -21 -19 -45z" />
<glyph unicode="&#xc5;" horiz-adv-x="1408" d="M0 -160q0 13 9.5 22.5t22.5 9.5h1344q13 0 22.5 -9.5t9.5 -22.5v-64q0 -13 -9.5 -22.5t-22.5 -9.5h-1344q-13 0 -22.5 9.5t-9.5 22.5v64zM256 640q0 78 24.5 144t64 112.5t87.5 88t96 77.5t87.5 72t64 81.5t24.5 96.5q0 94 -66 224l3 -1l-1 1q90 -41 160 -83t138.5 -100 t113.5 -122.5t72.5 -150.5t27.5 -184q0 -78 -24.5 -144t-64 -112.5t-87.5 -88t-96 -77.5t-87.5 -72t-64 -81.5t-24.5 -96.5q0 -96 67 -224l-4 1l1 -1q-90 41 -160 83t-138.5 100t-113.5 122.5t-72.5 150.5t-27.5 184z" />
<glyph unicode="&#xc6;" horiz-adv-x="1920" d="M0 32v1216q0 66 47 113t113 47h1600q66 0 113 -47t47 -113v-1216q0 -66 -47 -113t-113 -47h-1600q-66 0 -113 47t-47 113zM128 32q0 -13 9.5 -22.5t22.5 -9.5h1600q13 0 22.5 9.5t9.5 22.5v608h-1664v-608zM128 1024h1664v224q0 13 -9.5 22.5t-22.5 9.5h-1600 q-13 0 -22.5 -9.5t-9.5 -22.5v-224zM256 128v128h256v-128h-256zM640 128v128h384v-128h-384z" />
<glyph unicode="&#xc7;" horiz-adv-x="1792" d="M0 576q0 34 20 69q140 229 376.5 368t499.5 139t499.5 -139t376.5 -368q20 -35 20 -69t-20 -69q-140 -230 -376.5 -368.5t-499.5 -138.5t-499.5 139t-376.5 368q-20 35 -20 69zM128 576q133 -205 333.5 -326.5t434.5 -121.5t434.5 121.5t333.5 326.5q-152 236 -381 353 q61 -104 61 -225q0 -185 -131.5 -316.5t-316.5 -131.5t-316.5 131.5t-131.5 316.5q0 121 61 225q-229 -117 -381 -353zM592 704q0 -20 14 -34t34 -14t34 14t14 34q0 86 61 147t147 61q20 0 34 14t14 34t-14 34t-34 14q-125 0 -214.5 -89.5t-89.5 -214.5z" />
<glyph unicode="&#xc8;" horiz-adv-x="1664" d="M0 681q0 5 1 7q45 183 172.5 319.5t298 204.5t360.5 68q140 0 274.5 -40t246.5 -113.5t194.5 -187t115.5 -251.5q1 -2 1 -7q0 -13 -9.5 -22.5t-22.5 -9.5q-11 0 -23 10q-49 46 -93 69t-102 23q-68 0 -128 -37t-103 -97q-7 -10 -17.5 -28t-14.5 -24q-11 -17 -28 -17 q-18 0 -29 17q-4 6 -14.5 24t-17.5 28q-43 60 -102.5 97t-127.5 37t-127.5 -37t-102.5 -97q-7 -10 -17.5 -28t-14.5 -24q-11 -17 -29 -17q-17 0 -28 17q-4 6 -14.5 24t-17.5 28q-43 60 -103 97t-128 37q-58 0 -102 -23t-93 -69q-12 -10 -23 -10q-13 0 -22.5 9.5t-9.5 22.5z M384 128q0 26 19 45t45 19t45 -19t19 -45q0 -50 39 -89t89 -39t89 39t39 89v580q33 11 64 11t64 -11v-580q0 -104 -76 -180t-180 -76t-180 76t-76 180zM768 1310v98q0 26 19 45t45 19t45 -19t19 -45v-98q-42 2 -64 2t-64 -2z" />
<glyph unicode="&#xc9;" horiz-adv-x="1792" d="M0 576q0 38 20 69q153 235 380 371t496 136q89 0 180 -17l54 97q10 16 28 16q5 0 18 -6t31 -15.5t33 -18.5t31.5 -18.5t19.5 -11.5q16 -10 16 -27q0 -7 -1 -9q-105 -188 -315 -566t-316 -567l-49 -89q-10 -16 -28 -16q-12 0 -134 70q-16 10 -16 28q0 12 44 87 q-143 65 -263.5 173t-208.5 245q-20 31 -20 69zM128 576q167 -258 427 -375l78 141q-87 63 -136 159t-49 203q0 121 61 225q-229 -117 -381 -353zM592 704q0 -20 14 -34t34 -14t34 14t14 34q0 86 61 147t147 61q20 0 34 14t14 34t-14 34t-34 14q-125 0 -214.5 -89.5 t-89.5 -214.5zM896 0l74 132q212 18 392.5 137t301.5 307q-115 179 -282 294l63 112q95 -64 182.5 -153t144.5 -184q20 -34 20 -69t-20 -69q-39 -64 -109 -145q-150 -172 -347.5 -267t-419.5 -95zM1056 286l280 502q8 -45 8 -84q0 -139 -79 -253.5t-209 -164.5z" />
<glyph unicode="&#xca;" horiz-adv-x="1792" d="M0 768q0 139 94 257t256.5 186.5t353.5 68.5t353.5 -68.5t256.5 -186.5t94 -257t-94 -257t-256.5 -186.5t-353.5 -68.5q-86 0 -176 16q-124 -88 -278 -128q-36 -9 -86 -16h-3q-11 0 -20.5 8t-11.5 21q-1 3 -1 6.5t0.5 6.5t1.5 6l3 5l3 5l4 6l5 4l4 5q5 6 23 25t26 29.5 t22.5 29t25 38.5t20.5 44q-124 72 -195 177t-71 224zM128 768q0 -82 53 -158t149 -132l97 -56l-35 -84q34 20 62 39l44 31l53 -10q78 -14 153 -14q153 0 286 52t211.5 141t78.5 191t-78.5 191t-211.5 141t-286 52t-286 -52t-211.5 -141t-78.5 -191zM616 132q58 -4 88 -4 q161 0 309 45t264 129q125 92 192 212t67 254q0 77 -23 152q129 -71 204 -178t75 -230q0 -120 -71 -224.5t-195 -176.5q10 -24 20.5 -44t25 -38.5t22.5 -29t26 -29.5t23 -25q1 -1 4 -4.5t4.5 -5t4 -5t3.5 -5.5l3 -5l2 -6v-6l-1 -7q-3 -14 -13 -22t-22 -7q-50 7 -86 16 q-154 40 -278 128q-90 -16 -176 -16q-271 0 -472 132z" />
<glyph unicode="&#xcb;" horiz-adv-x="1792" d="M0 -32v320q0 40 28 68t68 28h96v192q0 52 38 90t90 38h512v192h-96q-40 0 -68 28t-28 68v320q0 40 28 68t68 28h320q40 0 68 -28t28 -68v-320q0 -40 -28 -68t-68 -28h-96v-192h512q52 0 90 -38t38 -90v-192h96q40 0 68 -28t28 -68v-320q0 -40 -28 -68t-68 -28h-320 q-40 0 -68 28t-28 68v320q0 40 28 68t68 28h96v192h-512v-192h96q40 0 68 -28t28 -68v-320q0 -40 -28 -68t-68 -28h-320q-40 0 -68 28t-28 68v320q0 40 28 68t68 28h96v192h-512v-192h96q40 0 68 -28t28 -68v-320q0 -40 -28 -68t-68 -28h-320q-40 0 -68 28t-28 68z" />
<glyph unicode="&#xcc;" horiz-adv-x="1920" d="M0 448q0 130 70 240t188 165q-2 30 -2 43q0 212 150 362t362 150q156 0 285.5 -87t188.5 -231q71 62 166 62q106 0 181 -75t75 -181q0 -76 -41 -138q130 -31 213.5 -135.5t83.5 -238.5q0 -159 -112.5 -271.5t-271.5 -112.5h-1088q-185 0 -316.5 131.5t-131.5 316.5z M512 608q0 -14 9 -23l352 -352q9 -9 23 -9t23 9l351 351q10 12 10 24q0 14 -9 23t-23 9h-224v352q0 13 -9.5 22.5t-22.5 9.5h-192q-13 0 -22.5 -9.5t-9.5 -22.5v-352h-224q-13 0 -22.5 -9.5t-9.5 -22.5z" />
<glyph unicode="&#xcd;" horiz-adv-x="1792" d="M0 96v1344q0 40 28 68t68 28h1088q40 0 68 -28t28 -68v-328q21 -13 36 -28l408 -408q28 -28 48 -76t20 -88v-672q0 -40 -28 -68t-68 -28h-960q-40 0 -68 28t-28 68v160h-544q-40 0 -68 28t-28 68zM256 1312q0 -13 9.5 -22.5t22.5 -9.5h704q13 0 22.5 9.5t9.5 22.5v64 q0 13 -9.5 22.5t-22.5 9.5h-704q-13 0 -22.5 -9.5t-9.5 -22.5v-64zM768 -128h896v640h-416q-40 0 -68 28t-28 68v416h-384v-1152zM1280 640h299l-299 299v-299z" />
<glyph unicode="&#xce;" horiz-adv-x="1024" d="M0 960q0 99 44.5 184.5t117 142t164 89t186.5 32.5t186.5 -32.5t164 -89t117 -142t44.5 -184.5q0 -155 -103 -268q-45 -49 -74.5 -87t-59.5 -95.5t-34 -107.5q47 -28 47 -82q0 -37 -25 -64q25 -27 25 -64q0 -52 -45 -81q13 -23 13 -47q0 -46 -31.5 -71t-77.5 -25 q-20 -44 -60 -70t-87 -26t-87 26t-60 70q-46 0 -77.5 25t-31.5 71q0 24 13 47q-45 29 -45 81q0 37 25 64q-25 27 -25 64q0 54 47 82q-4 50 -34 107.5t-59.5 95.5t-74.5 87q-103 113 -103 268zM128 960q0 -101 68 -180q10 -11 30.5 -33t30.5 -33q128 -153 141 -298h228 q13 145 141 298q10 11 30.5 33t30.5 33q68 79 68 180q0 72 -34.5 134t-90 101.5t-123 62t-136.5 22.5t-136.5 -22.5t-123 -62t-90 -101.5t-34.5 -134zM480 1088q0 13 9.5 22.5t22.5 9.5q50 0 99.5 -16t87 -54t37.5 -90q0 -13 -9.5 -22.5t-22.5 -9.5t-22.5 9.5t-9.5 22.5 q0 46 -54 71t-106 25q-13 0 -22.5 9.5t-9.5 22.5z" />
<glyph unicode="&#xcf;" horiz-adv-x="1792" d="M0 256q0 14 9 23l320 320q9 9 23 9q13 0 22.5 -9.5t9.5 -22.5v-192h1376q13 0 22.5 -9.5t9.5 -22.5v-192q0 -13 -9.5 -22.5t-22.5 -9.5h-1376v-192q0 -13 -9.5 -22.5t-22.5 -9.5q-12 0 -24 10l-319 320q-9 9 -9 22zM0 800v192q0 13 9.5 22.5t22.5 9.5h1376v192q0 14 9 23 t23 9q12 0 24 -10l319 -319q9 -9 9 -23t-9 -23l-320 -320q-9 -9 -23 -9q-13 0 -22.5 9.5t-9.5 22.5v192h-1376q-13 0 -22.5 9.5t-9.5 22.5z" />
<glyph unicode="&#xd1;" horiz-adv-x="1792" d="M16 61l768 1408q17 31 47 49t65 18t65 -18t47 -49l768 -1408q35 -63 -2 -126q-17 -29 -46.5 -46t-63.5 -17h-1536q-34 0 -63.5 17t-46.5 46q-37 63 -2 126zM752 992l17 -457q0 -10 10 -16.5t24 -6.5h185q14 0 23.5 6.5t10.5 16.5l18 459q0 12 -10 19q-13 11 -24 11h-220 q-11 0 -24 -11q-10 -7 -10 -21zM768 161q0 -14 9.5 -23.5t22.5 -9.5h192q13 0 22.5 9.5t9.5 23.5v190q0 14 -9.5 23.5t-22.5 9.5h-192q-13 0 -22.5 -9.5t-9.5 -23.5v-190z" />
<glyph unicode="&#xd2;" horiz-adv-x="1792" d="M0 96v832q0 92 66 158t158 66h64v-1280h-64q-92 0 -158 66t-66 158zM384 -128v1280h128v160q0 40 28 68t68 28h576q40 0 68 -28t28 -68v-160h128v-1280h-1024zM640 1152h512v128h-512v-128zM1504 -128v1280h64q92 0 158 -66t66 -158v-832q0 -92 -66 -158t-158 -66h-64z " />
<glyph unicode="&#xd3;" horiz-adv-x="1920" d="M0 448q0 130 70 240t188 165q-2 30 -2 43q0 212 150 362t362 150q156 0 285.5 -87t188.5 -231q71 62 166 62q106 0 181 -75t75 -181q0 -76 -41 -138q130 -31 213.5 -135.5t83.5 -238.5q0 -159 -112.5 -271.5t-271.5 -112.5h-1088q-185 0 -316.5 131.5t-131.5 316.5z M512 672q0 -14 9 -23t23 -9h224v-352q0 -13 9.5 -22.5t22.5 -9.5h192q13 0 22.5 9.5t9.5 22.5v352h224q13 0 22.5 9.5t9.5 22.5q0 14 -9 23l-352 352q-9 9 -23 9t-23 -9l-351 -351q-10 -12 -10 -24z" />
<glyph unicode="&#xd4;" horiz-adv-x="1408" d="M0 131q0 68 5.5 131t24 138t47.5 132.5t81 103t120 60.5q-22 -52 -22 -120v-203q-58 -20 -93 -70t-35 -111q0 -80 56 -136t136 -56t136 56t56 136q0 61 -35.5 111t-92.5 70v203q0 62 25 93q132 -104 295 -104t295 104q25 -31 25 -93v-64q-106 0 -181 -75t-75 -181v-89 q-32 -29 -32 -71q0 -40 28 -68t68 -28t68 28t28 68q0 42 -32 71v89q0 52 38 90t90 38t90 -38t38 -90v-89q-32 -29 -32 -71q0 -40 28 -68t68 -28t68 28t28 68q0 42 -32 71v89q0 68 -34.5 127.5t-93.5 93.5q0 10 0.5 42.5t0 48t-2.5 41.5t-7 47t-13 40q68 -15 120 -60.5 t81 -103t47.5 -132.5t24 -138t5.5 -131q0 -121 -73 -190t-194 -69h-874q-121 0 -194 69t-73 190zM256 192q0 26 19 45t45 19t45 -19t19 -45t-19 -45t-45 -19t-45 19t-19 45zM320 1024q0 159 112.5 271.5t271.5 112.5t271.5 -112.5t112.5 -271.5t-112.5 -271.5t-271.5 -112.5 t-271.5 112.5t-112.5 271.5z" />
<glyph unicode="&#xd5;" horiz-adv-x="1792" d="M15 438q0 51 23.5 93t56.5 68t66 47.5t56.5 43.5t23.5 45q0 25 -14.5 38.5t-39.5 13.5q-46 0 -81 -58l-85 59q24 51 71.5 79.5t105.5 28.5q73 0 123 -41.5t50 -112.5q0 -50 -34 -91.5t-75 -64.5t-75.5 -50.5t-35.5 -52.5h127v60h105v-159h-362q-6 36 -6 54zM19 -190 l57 88q49 -45 106 -45q29 0 50.5 14.5t21.5 42.5q0 64 -105 56l-26 56q8 10 32.5 43.5t42.5 54t37 38.5v1q-16 0 -48.5 -1t-48.5 -1v-53h-106v152h333v-88l-95 -115q51 -12 81 -49t30 -88q0 -80 -54.5 -126t-135.5 -46q-106 0 -172 66zM34 1400l136 127h106v-404h108v-99 h-335v99h107q0 41 0.5 122t0.5 121v12h-2q-8 -17 -50 -54zM512 32v192q0 14 9 23t23 9h1216q13 0 22.5 -9.5t9.5 -22.5v-192q0 -13 -9.5 -22.5t-22.5 -9.5h-1216q-13 0 -22.5 9.5t-9.5 22.5zM512 544v192q0 14 9 23t23 9h1216q13 0 22.5 -9.5t9.5 -22.5v-192 q0 -13 -9.5 -22.5t-22.5 -9.5h-1216q-13 0 -22.5 9.5t-9.5 22.5zM512 1056v192q0 13 9.5 22.5t22.5 9.5h1216q13 0 22.5 -9.5t9.5 -22.5v-192q0 -13 -9.5 -22.5t-22.5 -9.5h-1216q-13 0 -22.5 9.5t-9.5 22.5z" />
<glyph unicode="&#xd6;" horiz-adv-x="1408" d="M0 477q-1 13 9 25l96 97q9 9 23 9q6 0 8 -1l194 -53l259 259l-508 279q-14 8 -17 24q-2 16 9 27l128 128q14 13 30 8l665 -159l160 160q76 76 172 108t148 -12q44 -52 12 -148t-108 -172l-161 -161l160 -696q5 -19 -12 -33l-128 -96q-7 -6 -19 -6q-4 0 -7 1q-15 3 -21 16 l-279 508l-259 -259l53 -194q5 -17 -8 -31l-96 -96q-9 -9 -23 -9h-2q-15 2 -24 13l-189 252l-252 189q-11 7 -13 23z" />
<glyph unicode="&#xd8;" horiz-adv-x="1408" d="M0 192q0 80 56 136t136 56t136 -56t56 -136t-56 -136t-136 -56t-136 56t-56 136zM0 697v135q0 29 21 47q17 17 43 17h5q160 -13 306 -80.5t259 -181.5q114 -113 181.5 -259t80.5 -306q2 -28 -17 -48q-18 -21 -47 -21h-135q-25 0 -43 16.5t-20 41.5q-22 229 -184.5 391.5 t-391.5 184.5q-25 2 -41.5 20t-16.5 43zM0 1201v143q0 28 20 46q18 18 44 18h3q262 -13 501.5 -120t425.5 -294q187 -186 294 -425.5t120 -501.5q2 -27 -18 -47q-18 -20 -46 -20h-143q-26 0 -44.5 17.5t-19.5 42.5q-12 215 -101 408.5t-231.5 336t-336 231.5t-408.5 102 q-25 1 -42.5 19.5t-17.5 43.5z" />
<glyph unicode="&#xd9;" horiz-adv-x="1408" d="M0 832v640q0 26 19 45t45 19t45 -19t19 -45v-416q0 -26 19 -45t45 -19t45 19t19 45v416q0 26 19 45t45 19t45 -19t19 -45v-416q0 -26 19 -45t45 -19t45 19t19 45v416q0 26 19 45t45 19t45 -19t19 -45v-640q0 -61 -35.5 -111t-92.5 -70v-779q0 -52 -38 -90t-90 -38h-128 q-52 0 -90 38t-38 90v779q-57 20 -92.5 70t-35.5 111zM768 416v800q0 132 94 226t226 94h256q26 0 45 -19t19 -45v-1600q0 -52 -38 -90t-90 -38h-128q-52 0 -90 38t-38 90v512h-224q-13 0 -22.5 9.5t-9.5 22.5z" />
<glyph unicode="&#xda;" horiz-adv-x="1664" d="M0 128q190 161 287 397.5t97 498.5q0 165 96 262t264 117q-8 18 -8 37q0 40 28 68t68 28t68 -28t28 -68q0 -19 -8 -37q168 -20 264 -117t96 -262q0 -262 97 -498.5t287 -397.5q0 -52 -38 -90t-90 -38h-448q0 -106 -75 -181t-181 -75t-181 75t-75 181h-448q-52 0 -90 38 t-38 90zM656 0q0 -73 51.5 -124.5t124.5 -51.5q16 0 16 16t-16 16q-59 0 -101.5 42.5t-42.5 101.5q0 16 -16 16t-16 -16z" />
<glyph unicode="&#xdb;" horiz-adv-x="1920" d="M0 128h1792q0 -106 -75 -181t-181 -75h-1280q-106 0 -181 75t-75 181zM256 480v736q0 26 19 45t45 19h1152q159 0 271.5 -112.5t112.5 -271.5t-112.5 -271.5t-271.5 -112.5h-64v-32q0 -92 -66 -158t-158 -66h-704q-92 0 -158 66t-66 158zM1408 704h64q80 0 136 56t56 136 t-56 136t-136 56h-64v-384z" />
<glyph unicode="&#xdc;" horiz-adv-x="1664" d="M0 -128v1280q0 52 38 90t90 38h128v96q0 66 47 113t113 47h64q66 0 113 -47t47 -113v-96h384v96q0 66 47 113t113 47h64q66 0 113 -47t47 -113v-96h128q52 0 90 -38t38 -90v-1280q0 -52 -38 -90t-90 -38h-1408q-52 0 -90 38t-38 90zM128 -128h288v288h-288v-288zM128 224 h288v320h-288v-320zM128 608h288v288h-288v-288zM384 1088q0 -13 9.5 -22.5t22.5 -9.5h64q13 0 22.5 9.5t9.5 22.5v288q0 13 -9.5 22.5t-22.5 9.5h-64q-13 0 -22.5 -9.5t-9.5 -22.5v-288zM480 -128h320v288h-320v-288zM480 224h320v320h-320v-320zM480 608h320v288h-320 v-288zM864 -128h320v288h-320v-288zM864 224h320v320h-320v-320zM864 608h320v288h-320v-288zM1152 1088q0 -13 9.5 -22.5t22.5 -9.5h64q13 0 22.5 9.5t9.5 22.5v288q0 13 -9.5 22.5t-22.5 9.5h-64q-13 0 -22.5 -9.5t-9.5 -22.5v-288zM1248 -128h288v288h-288v-288z M1248 224h288v320h-288v-320zM1248 608h288v288h-288v-288z" />
<glyph unicode="&#xdf;" horiz-adv-x="1408" d="M0 288v832q0 119 84.5 203.5t203.5 84.5h832q119 0 203.5 -84.5t84.5 -203.5v-832q0 -119 -84.5 -203.5t-203.5 -84.5h-832q-119 0 -203.5 84.5t-84.5 203.5zM128 288q0 -66 47 -113t113 -47h832q66 0 113 47t47 113v832q0 66 -47 113t-113 47h-832q-66 0 -113 -47 t-47 -113v-832z" />
<glyph unicode="&#xe0;" horiz-adv-x="1792" d="M0 640q0 130 71 248.5t191 204.5t286 136.5t348 50.5q244 0 450 -85.5t326 -233t120 -321.5t-120 -321.5t-326 -233t-450 -85.5q-70 0 -145 8q-198 -175 -460 -242q-49 -14 -114 -22q-17 -2 -30.5 9t-17.5 29v1q-3 4 -0.5 12t2 10t4.5 9l6 10l7 8l8 9q7 8 31 34.5 t34.5 38t31 39.5t32.5 51t27 59t26 76q-157 89 -247.5 220t-90.5 281z" />
<glyph unicode="&#xe1;" horiz-adv-x="1792" d="M0 160v192q0 14 9 23t23 9h224q48 0 87 15t69 45t51 61.5t45 77.5q32 62 78 171q29 66 49.5 111t54 105t64 100t74 83t90 68.5t106.5 42t128 16.5h256v192q0 14 9 23t23 9q12 0 24 -10l319 -319q9 -9 9 -23t-9 -23l-320 -320q-9 -9 -23 -9q-13 0 -22.5 9.5t-9.5 22.5v192 h-256q-48 0 -87 -15t-69 -45t-51 -61.5t-45 -77.5q-32 -62 -78 -171q-29 -66 -49.5 -111t-54 -105t-64 -100t-74 -83t-90 -68.5t-106.5 -42t-128 -16.5h-224q-14 0 -23 9t-9 23zM0 1056v192q0 14 9 23t23 9h224q250 0 410 -225q-60 -92 -137 -273q-22 45 -37 72.5 t-40.5 63.5t-51 56.5t-63 35t-81.5 14.5h-224q-14 0 -23 9t-9 23zM743 353q59 93 136 273q22 -45 37 -72.5t40.5 -63.5t51 -56.5t63 -35t81.5 -14.5h256v192q0 14 9 23t23 9q12 0 24 -10l319 -319q9 -9 9 -23t-9 -23l-320 -320q-9 -9 -23 -9q-13 0 -22.5 9.5t-9.5 22.5v192 q-32 0 -85 -0.5t-81 -1t-73 1t-71 5t-64 10.5t-63 18.5t-58 28.5t-59 40t-55 53.5t-56 69.5z" />
<glyph unicode="&#xe2;" d="M0 576v128q0 26 19 45t45 19h384q26 0 45 -19t19 -45v-128q0 -52 23.5 -90t53.5 -57t71 -30t64 -13t44 -2t44 2t64 13t71 30t53.5 57t23.5 90v128q0 26 19 45t45 19h384q26 0 45 -19t19 -45v-128q0 -201 -98.5 -362t-274 -251.5t-395.5 -90.5t-395.5 90.5t-274 251.5 t-98.5 362zM0 960v384q0 26 19 45t45 19h384q26 0 45 -19t19 -45v-384q0 -26 -19 -45t-45 -19h-384q-26 0 -45 19t-19 45zM1024 960v384q0 26 19 45t45 19h384q26 0 45 -19t19 -45v-384q0 -26 -19 -45t-45 -19h-384q-26 0 -45 19t-19 45z" />
<glyph unicode="&#xe3;" horiz-adv-x="1664" d="M53 832q0 53 38 91l74 75q39 37 91 37q53 0 90 -37l486 -486l486 486q37 37 90 37q52 0 91 -37l75 -75q37 -39 37 -91q0 -53 -37 -90l-651 -651q-38 -38 -91 -38q-54 0 -90 38l-651 651q-38 36 -38 90z" />
<glyph unicode="&#xe4;" horiz-adv-x="1664" d="M53 320q0 53 38 91l651 651q37 37 90 37q52 0 91 -37l650 -651q38 -38 38 -91t-37 -90l-75 -75q-38 -38 -91 -38q-54 0 -90 38l-486 485l-486 -485q-36 -38 -90 -38t-90 38l-75 75q-38 36 -38 90z" />
<glyph unicode="&#xe5;" horiz-adv-x="1920" d="M0 704q0 24 15 41l320 384q19 22 49 22t49 -22l320 -384q15 -17 15 -41q0 -26 -19 -45t-45 -19h-192v-384h576q16 0 25 -11l160 -192q7 -11 7 -21q0 -13 -9.5 -22.5t-22.5 -9.5h-960q-8 0 -13.5 2t-9 7t-5.5 8t-3 11.5t-1 11.5v13v11v160v416h-192q-26 0 -45 19t-19 45z M640 1120q0 13 9.5 22.5t22.5 9.5h960q8 0 13.5 -2t9 -7t5.5 -8t3 -11.5t1 -11.5v-13v-11v-160v-416h192q26 0 45 -19t19 -45q0 -24 -15 -41l-320 -384q-20 -23 -49 -23t-49 23l-320 384q-15 17 -15 41q0 26 19 45t45 19h192v384h-576q-16 0 -25 12l-160 192q-7 9 -7 20z " />
<glyph unicode="&#xe6;" horiz-adv-x="1792" d="M0 64v256q0 26 19 45t45 19h1664q26 0 45 -19t19 -45v-256q0 -26 -19 -45t-45 -19h-1664q-26 0 -45 19t-19 45zM0 576v256q0 26 19 45t45 19h1664q26 0 45 -19t19 -45v-256q0 -26 -19 -45t-45 -19h-1664q-26 0 -45 19t-19 45zM0 1088v256q0 26 19 45t45 19h1664 q26 0 45 -19t19 -45v-256q0 -26 -19 -45t-45 -19h-1664q-26 0 -45 19t-19 45zM640 640h1024v128h-1024v-128zM1024 128h640v128h-640v-128zM1280 1152h384v128h-384v-128z" />
<glyph unicode="&#xe7;" horiz-adv-x="1664" d="M0 1216q0 26 19 45t45 19h256q16 0 28.5 -6.5t20 -15.5t13 -24.5t7.5 -26.5t5.5 -29.5t4.5 -25.5h1201q26 0 45 -19t19 -45v-512q0 -24 -16 -42.5t-41 -21.5l-1044 -122q1 -7 4.5 -21.5t6 -26.5t2.5 -22q0 -16 -24 -64h920q26 0 45 -19t19 -45t-19 -45t-45 -19h-1024 q-26 0 -45 19t-19 45q0 14 11 39.5t29.5 59.5t20.5 38l-177 823h-204q-26 0 -45 19t-19 45zM384 0q0 53 37.5 90.5t90.5 37.5t90.5 -37.5t37.5 -90.5t-37.5 -90.5t-90.5 -37.5t-90.5 37.5t-37.5 90.5zM1280 0q0 53 37.5 90.5t90.5 37.5t90.5 -37.5t37.5 -90.5t-37.5 -90.5 t-90.5 -37.5t-90.5 37.5t-37.5 90.5z" />
<glyph unicode="&#xe8;" horiz-adv-x="1920" d="M0 224v960q0 92 66 158t158 66h320q92 0 158 -66t66 -158v-32h544q92 0 158 -66t66 -158v-160h-832q-94 0 -197 -47.5t-164 -119.5l-337 -396l-5 -6q0 4 -0.5 12.5t-0.5 12.5zM73 56q0 31 31 66l336 396q43 51 120.5 86.5t143.5 35.5h1088q34 0 60.5 -13t26.5 -43 q0 -31 -31 -66l-336 -396q-43 -51 -120.5 -86.5t-143.5 -35.5h-1088q-34 0 -60.5 13t-26.5 43z" />
<glyph unicode="&#xe9;" horiz-adv-x="1664" d="M0 224v960q0 92 66 158t158 66h320q92 0 158 -66t66 -158v-32h672q92 0 158 -66t66 -158v-704q0 -92 -66 -158t-158 -66h-1216q-92 0 -158 66t-66 158z" />
<glyph unicode="&#xea;" horiz-adv-x="768" d="M64 64q0 26 19 45t45 19h128v1024h-128q-26 0 -45 19t-19 45t19 45l256 256q19 19 45 19t45 -19l256 -256q19 -19 19 -45t-19 -45t-45 -19h-128v-1024h128q26 0 45 -19t19 -45t-19 -45l-256 -256q-19 -19 -45 -19t-45 19l-256 256q-19 19 -19 45z" />
<glyph unicode="&#xeb;" horiz-adv-x="1792" d="M0 640q0 26 19 45l256 256q19 19 45 19t45 -19t19 -45v-128h1024v128q0 26 19 45t45 19t45 -19l256 -256q19 -19 19 -45t-19 -45l-256 -256q-19 -19 -45 -19t-45 19t-19 45v128h-1024v-128q0 -26 -19 -45t-45 -19t-45 19l-256 256q-19 19 -19 45z" />
<glyph unicode="&#xec;" d="M0 160v960q0 119 84.5 203.5t203.5 84.5h960q119 0 203.5 -84.5t84.5 -203.5v-960q0 -119 -84.5 -203.5t-203.5 -84.5h-960q-119 0 -203.5 84.5t-84.5 203.5zM256 286q148 -94 322 -94q112 0 210 35.5t168 95t120.5 137t75 162t24.5 168.5q0 18 -1 27q63 45 105 109 q-56 -25 -121 -34q68 40 93 117q-65 -38 -134 -51q-61 66 -153 66q-87 0 -148.5 -61.5t-61.5 -148.5q0 -29 5 -48q-129 7 -242 65t-192 155q-29 -50 -29 -106q0 -114 91 -175q-47 1 -100 26v-2q0 -75 50 -133.5t123 -72.5q-29 -8 -51 -8q-13 0 -39 4q21 -63 74.5 -104 t121.5 -42q-116 -90 -261 -90q-26 0 -50 3z" />
<glyph unicode="&#xed;" horiz-adv-x="1920" d="M0 32v1216q0 66 47 113t113 47h1600q66 0 113 -47t47 -113v-1216q0 -66 -47 -113t-113 -47h-1600q-66 0 -113 47t-47 113zM128 32q0 -13 9.5 -22.5t22.5 -9.5h1600q13 0 22.5 9.5t9.5 22.5v1216q0 13 -9.5 22.5t-22.5 9.5h-1600q-13 0 -22.5 -9.5t-9.5 -22.5v-1216z M256 128v384h256v-384h-256zM640 128v896h256v-896h-256zM1024 128v640h256v-640h-256zM1408 128v1024h256v-1024h-256z" />
<glyph unicode="&#xee;" d="M0 160v960q0 119 84.5 203.5t203.5 84.5h960q119 0 203.5 -84.5t84.5 -203.5v-960q0 -119 -84.5 -203.5t-203.5 -84.5h-960q-119 0 -203.5 84.5t-84.5 203.5zM739 618h131v-635h262v635h175l23 219h-198v109q0 49 15.5 68.5t71.5 19.5h110v219h-175q-152 0 -218 -72 t-66 -213v-131h-131v-219z" />
<glyph unicode="&#xef;" horiz-adv-x="1792" d="M0 0v1280q0 53 37.5 90.5t90.5 37.5h1536q53 0 90.5 -37.5t37.5 -90.5v-1280q0 -53 -37.5 -90.5t-90.5 -37.5h-1536q-53 0 -90.5 37.5t-37.5 90.5zM128 0h1536v128h-1536v-128zM128 1024h1536v118v138h-828l-64 -128h-644v-128zM256 1216h384v128h-384v-128zM512 574 q0 -159 112.5 -271.5t271.5 -112.5t271.5 112.5t112.5 271.5t-112.5 271.5t-271.5 112.5t-271.5 -112.5t-112.5 -271.5zM640 574q0 106 75 181t181 75t181 -75t75 -181t-75 -181t-181 -75t-181 75t-75 181zM736 576q0 -14 9 -23t23 -9t23 9t9 23q0 40 28 68t68 28q14 0 23 9 t9 23t-9 23t-23 9q-66 0 -113 -47t-47 -113z" />
<glyph unicode="&#xf1;" horiz-adv-x="1792" d="M0 752q0 160 95 313t248 248t313 95q163 0 265.5 -102.5t102.5 -265.5q0 -189 -131 -365l355 -355l96 96q-3 3 -26 24.5t-40 38.5t-33 36.5t-16 28.5q0 17 49 66t66 49q13 0 23 -10q6 -6 46 -44.5t82 -79.5t86.5 -86t73 -78t28.5 -41q0 -17 -49 -66t-66 -49 q-9 0 -28.5 16t-36.5 33t-38.5 40t-24.5 26l-96 -96l220 -220q28 -28 28 -68q0 -42 -39 -81t-81 -39q-40 0 -68 28l-671 671q-176 -131 -365 -131q-163 0 -265.5 102.5t-102.5 265.5zM192 768q0 -80 56 -136t136 -56t136 56t56 136q0 42 -19 83q41 -19 83 -19q80 0 136 56 t56 136t-56 136t-136 56t-136 -56t-56 -136q0 -42 19 -83q-41 19 -83 19q-80 0 -136 -56t-56 -136z" />
<glyph unicode="&#xf2;" horiz-adv-x="1792" d="M0 768q0 139 94 257t256.5 186.5t353.5 68.5t353.5 -68.5t256.5 -186.5t94 -257t-94 -257t-256.5 -186.5t-353.5 -68.5q-86 0 -176 16q-124 -88 -278 -128q-36 -9 -86 -16h-3q-11 0 -20.5 8t-11.5 21q-1 3 -1 6.5t0.5 6.5t1.5 6l3 5l3 5l4 6l5 4l4 5q5 6 23 25t26 29.5 t22.5 29t25 38.5t20.5 44q-124 72 -195 177t-71 224zM616 132q58 -4 88 -4q161 0 309 45t264 129q125 92 192 212t67 254q0 77 -23 152q129 -71 204 -178t75 -230q0 -120 -71 -224.5t-195 -176.5q10 -24 20.5 -44t25 -38.5t22.5 -29t26 -29.5t23 -25q1 -1 4 -4.5t4.5 -5 t4 -5t3.5 -5.5l3 -5l2 -6v-6l-1 -7q-3 -14 -13 -22t-22 -7q-50 7 -86 16q-154 40 -278 128q-90 -16 -176 -16q-271 0 -472 132z" />
<glyph unicode="&#xf3;" horiz-adv-x="1920" d="M0 549v185q0 10 7 19.5t16 10.5l155 24q11 35 32 76q-34 48 -90 115q-7 11 -7 20q0 12 7 20q22 30 82 89t79 59q11 0 21 -7l115 -90q34 18 77 32q11 108 23 154q7 24 30 24h186q11 0 20 -7.5t10 -17.5l23 -153q34 -10 75 -31l118 89q8 7 20 7q11 0 21 -8 q144 -133 144 -160q0 -9 -7 -19q-12 -16 -42 -54t-45 -60q23 -48 34 -82l152 -23q10 -2 17 -10.5t7 -19.5v-185q0 -10 -7 -19.5t-16 -10.5l-155 -24q-11 -35 -32 -76q34 -48 90 -115q7 -10 7 -20q0 -12 -7 -19q-23 -30 -82.5 -89.5t-78.5 -59.5q-11 0 -21 7l-115 90 q-37 -19 -77 -31q-11 -108 -23 -155q-7 -24 -30 -24h-186q-11 0 -20 7.5t-10 17.5l-23 153q-34 10 -75 31l-118 -89q-7 -7 -20 -7q-11 0 -21 8q-144 133 -144 160q0 9 7 19q10 14 41 53t47 61q-23 44 -35 82l-152 24q-10 1 -17 9.5t-7 19.5zM384 640q0 -106 75 -181t181 -75 t181 75t75 181t-75 181t-181 75t-181 -75t-75 -181zM1152 58v140q0 16 149 31q13 29 30 52q-51 113 -51 138q0 4 4 7q4 2 35 20t59 34t30 16q8 0 46 -46.5t52 -67.5q20 2 30 2t30 -2q51 71 92 112l6 2q4 0 124 -70q4 -3 4 -7q0 -25 -51 -138q17 -23 30 -52q149 -15 149 -31 v-140q0 -16 -149 -31q-12 -27 -30 -52q51 -113 51 -138q0 -4 -4 -7q-122 -71 -124 -71q-8 0 -46 47t-52 68q-20 -2 -30 -2t-30 2q-14 -21 -52 -68t-46 -47q-2 0 -124 71q-4 3 -4 7q0 25 51 138q-18 25 -30 52q-149 15 -149 31zM1152 1082v140q0 16 149 31q13 29 30 52 q-51 113 -51 138q0 4 4 7q4 2 35 20t59 34t30 16q8 0 46 -46.5t52 -67.5q20 2 30 2t30 -2q51 71 92 112l6 2q4 0 124 -70q4 -3 4 -7q0 -25 -51 -138q17 -23 30 -52q149 -15 149 -31v-140q0 -16 -149 -31q-12 -27 -30 -52q51 -113 51 -138q0 -4 -4 -7q-122 -71 -124 -71 q-8 0 -46 47t-52 68q-20 -2 -30 -2t-30 2q-14 -21 -52 -68t-46 -47q-2 0 -124 71q-4 3 -4 7q0 25 51 138q-18 25 -30 52q-149 15 -149 31zM1408 128q0 -53 37.5 -90.5t90.5 -37.5t90.5 37.5t37.5 90.5q0 52 -38 90t-90 38t-90 -38t-38 -90zM1408 1152q0 -53 37.5 -90.5 t90.5 -37.5t90.5 37.5t37.5 90.5q0 52 -38 90t-90 38t-90 -38t-38 -90z" />
<glyph unicode="&#xf4;" d="M0 128v640q0 53 37.5 90.5t90.5 37.5h274q36 24 137 155q58 75 107 128q24 25 35.5 85.5t30.5 126.5t62 108q39 37 90 37q84 0 151 -32.5t102 -101.5t35 -186q0 -93 -48 -192h176q104 0 180 -76t76 -179q0 -89 -49 -163q9 -33 9 -69q0 -77 -38 -144q3 -21 3 -43 q0 -101 -60 -178q1 -139 -85 -219.5t-227 -80.5h-36h-93q-96 0 -189.5 22.5t-216.5 65.5q-116 40 -138 40h-288q-53 0 -90.5 37.5t-37.5 90.5zM128 192q0 -26 19 -45t45 -19t45 19t19 45t-19 45t-45 19t-45 -19t-19 -45zM384 128h32q13 0 31.5 -3t33 -6.5t38 -11t35 -11.5 t35.5 -12.5t29 -10.5q211 -73 342 -73h121q192 0 192 167q0 26 -5 56q30 16 47.5 52.5t17.5 73.5t-18 69q53 50 53 119q0 25 -10 55.5t-25 47.5q32 1 53.5 47t21.5 81q0 51 -39 89.5t-89 38.5h-352q0 58 48 159.5t48 160.5q0 98 -32 145t-128 47q-26 -26 -38 -85 t-30.5 -125.5t-59.5 -109.5q-22 -23 -77 -91q-4 -5 -23 -30t-31.5 -41t-34.5 -42.5t-40 -44t-38.5 -35.5t-40 -27t-35.5 -9h-32v-640z" />
<glyph unicode="&#xf5;" horiz-adv-x="896" d="M0 889q0 37 56 46l502 73l225 455q19 41 49 41v-1339l-449 -236q-22 -12 -40 -12q-21 0 -31.5 14.5t-10.5 35.5q0 6 2 20l86 500l-364 354q-25 27 -25 48z" />
<glyph unicode="&#xf6;" d="M0 512v640q0 53 37.5 90.5t90.5 37.5h288q22 0 138 40q128 44 223 66t200 22h112q140 0 226.5 -79t85.5 -216v-5q60 -77 60 -178q0 -22 -3 -43q38 -67 38 -144q0 -36 -9 -69q49 -74 49 -163q0 -103 -76 -179t-180 -76h-176q48 -99 48 -192q0 -118 -35 -186 q-35 -69 -102 -101.5t-151 -32.5q-51 0 -90 37q-34 33 -54 82t-25.5 90.5t-17.5 84.5t-31 64q-48 50 -107 127q-101 131 -137 155h-274q-53 0 -90.5 37.5t-37.5 90.5zM128 1088q0 -26 19 -45t45 -19t45 19t19 45t-19 45t-45 19t-45 -19t-19 -45zM384 512h32q16 0 35.5 -9 t40 -27t38.5 -35.5t40 -44t34.5 -42.5t31.5 -41t23 -30q55 -68 77 -91q41 -43 59.5 -109.5t30.5 -125.5t38 -85q96 0 128 47t32 145q0 59 -48 160.5t-48 159.5h352q50 0 89 38.5t39 89.5q0 35 -21.5 81t-53.5 47q15 17 25 47.5t10 55.5q0 69 -53 119q18 32 18 69t-17.5 73.5 t-47.5 52.5q5 30 5 56q0 85 -49 126t-136 41h-128q-131 0 -342 -73q-5 -2 -29 -10.5t-35.5 -12.5t-35 -11.5t-38 -11t-33 -6.5t-31.5 -3h-32v-640z" />
<glyph unicode="&#xf7;" horiz-adv-x="1664" d="M0 56q0 61 37 135q32 64 96 110.5t145 71t155 36t150 13.5q-64 83 -64 149q0 12 2 23.5t5 19.5t8 21.5t7 21.5q-40 -5 -70 -5q-149 0 -255.5 98t-106.5 246q0 140 95 250.5t234 141.5q94 20 187 20h437l-135 -79h-135q71 -45 110 -126t39 -169q0 -74 -23 -131.5 t-56 -92.5t-66 -64.5t-56 -61t-23 -67.5q0 -26 16.5 -51t43 -48t58.5 -48t64 -55.5t58.5 -66t43 -85t16.5 -106.5q0 -160 -140 -282q-152 -131 -420 -131q-59 0 -119.5 10t-122 33.5t-108.5 58t-77 89t-30 121.5zM185 102q0 -68 35.5 -121.5t93 -84t120.5 -45.5t127 -15 q59 0 112.5 12.5t100.5 39t74.5 73.5t27.5 110q0 21 -4.5 40.5t-9.5 36t-17.5 34.5t-21 30.5t-26.5 29.5t-27.5 25.5t-32 25.5t-31 23t-33 23t-30.5 21q-17 2 -50 2q-54 0 -106 -7t-108 -25t-98 -46t-69 -75t-27 -107zM294 1102q0 -47 11.5 -99t35.5 -104t56 -93.5t78 -67.5 t97 -26q97 0 140.5 60.5t43.5 160.5q0 60 -16.5 127.5t-47 130.5t-84 104t-119.5 41q-93 0 -144 -69t-51 -165zM1024 1024v128h256v256h128v-256h256v-128h-256v-256h-128v256h-256z" />
<glyph unicode="&#xf8;" horiz-adv-x="1408" d="M5 1241q17 39 59 39h1280q42 0 59 -39q17 -41 -14 -70l-493 -493v-742q0 -42 -39 -59q-13 -5 -25 -5q-27 0 -45 19l-256 256q-19 19 -19 45v486l-493 493q-31 29 -14 70z" />
<glyph unicode="&#xf9;" horiz-adv-x="1664" d="M0 288v704q0 119 84.5 203.5t203.5 84.5h320q13 0 22.5 -9.5t9.5 -22.5q0 -4 1 -20t0.5 -26.5t-3 -23.5t-10 -19.5t-20.5 -6.5h-320q-66 0 -113 -47t-47 -113v-704q0 -66 47 -113t113 -47h288h11h13l12 -1l11 -3l8 -6l7 -8l2 -14q0 -4 1 -20t0.5 -26.5t-3 -23.5 t-10 -19.5t-20.5 -6.5h-320q-119 0 -203.5 84.5t-84.5 203.5zM384 448v384q0 26 19 45t45 19h448v288q0 26 19 45t45 19t45 -19l544 -544q19 -19 19 -45t-19 -45l-544 -544q-19 -19 -45 -19t-45 19t-19 45v288h-448q-26 0 -45 19t-19 45z" />
<glyph unicode="&#xfa;" horiz-adv-x="1792" d="M0 940q0 220 127 344t351 124q62 0 126.5 -21.5t120 -58t95.5 -68.5t76 -68q36 36 76 68t95.5 68.5t120 58t126.5 21.5q224 0 351 -124t127 -344q0 -221 -229 -450l-623 -600q-18 -18 -44 -18t-44 18l-624 602q-10 8 -27.5 26t-55.5 65.5t-68 97.5t-53.5 121t-23.5 138z M128 940q0 -168 187 -355l581 -560l580 559q188 188 188 356q0 81 -21.5 143t-55 98.5t-81.5 59.5t-94 31t-98 8t-112 -25.5t-110.5 -64t-86.5 -72t-60 -61.5q-18 -22 -49 -22t-49 22q-24 28 -60 61.5t-86.5 72t-110.5 64t-112 25.5t-98 -8t-94 -31t-81.5 -59.5t-55 -98.5 t-21.5 -143z" />
<glyph unicode="&#xfb;" d="M0 160v960q0 119 84.5 203.5t203.5 84.5h960q119 0 203.5 -84.5t84.5 -203.5v-960q0 -119 -84.5 -203.5t-203.5 -84.5h-960q-119 0 -203.5 84.5t-84.5 203.5zM223 1030q0 -51 35.5 -85.5t92.5 -34.5h1q59 0 95 34.5t36 85.5q-1 52 -36 86t-93 34t-94.5 -34t-36.5 -86z M237 122h231v694h-231v-694zM595 122h231v388q0 38 7 56q15 35 45 59.5t74 24.5q116 0 116 -157v-371h231v398q0 154 -73 233t-193 79q-136 0 -209 -117h2v101h-231q3 -66 0 -694z" />
<glyph unicode="&#xfc;" horiz-adv-x="1152" d="M0 320q0 123 78.5 221.5t177.5 98.5v512q-52 0 -90 38t-38 90t38 90t90 38h640q52 0 90 -38t38 -90t-38 -90t-90 -38v-512q99 0 177.5 -98.5t78.5 -221.5q0 -26 -19 -45t-45 -19h-429l-51 -483q-2 -12 -10.5 -20.5t-20.5 -8.5h-1q-27 0 -32 27l-76 485h-404q-26 0 -45 19 t-19 45zM416 672q0 -14 9 -23t23 -9t23 9t9 23v448q0 14 -9 23t-23 9t-23 -9t-9 -23v-448z" />
<glyph unicode="&#xff;" horiz-adv-x="1024" d="M0 832q0 26 19 45t45 19h896q26 0 45 -19t19 -45t-19 -45l-448 -448q-19 -19 -45 -19t-45 19l-448 448q-19 19 -19 45z" />
<glyph unicode="&#x152;" horiz-adv-x="1792" d="M0 544v64q0 14 9 23t23 9h1728q14 0 23 -9t9 -23v-64q0 -14 -9 -23t-23 -9h-1728q-14 0 -23 9t-9 23zM384 972q0 181 134 309q133 127 393 127q50 0 167 -19q66 -12 177 -48q10 -38 21 -118q14 -123 14 -183q0 -18 -5 -45l-12 -3l-84 6l-14 2q-50 149 -103 205 q-88 91 -210 91q-114 0 -182 -59q-67 -58 -67 -146q0 -73 66 -140t279 -129q69 -20 173 -66q58 -28 95 -52h-743q-28 35 -51 80q-48 97 -48 188zM414 154q-1 30 0 68l2 37v44l102 2q15 -34 30 -71t22.5 -56t12.5 -27q35 -57 80 -94q43 -36 105 -57q59 -22 132 -22 q64 0 139 27q77 26 122 86q47 61 47 129q0 84 -81 157q-34 29 -137 71h411q7 -39 7 -92q0 -111 -41 -212q-23 -55 -71 -104q-37 -35 -109 -81q-80 -48 -153 -66q-80 -21 -203 -21q-114 0 -195 23l-140 40q-57 16 -72 28q-8 8 -8 22v13q0 108 -2 156z" />
<glyph unicode="&#x153;" d="M0 -32v-64q0 -14 9 -23t23 -9h1472q14 0 23 9t9 23v64q0 14 -9 23t-23 9h-1472q-14 0 -23 -9t-9 -23zM0 1405q13 1 40 1q60 0 112 -4q132 -7 166 -7q86 0 168 3q116 4 146 5q56 0 86 2l-1 -14l2 -64v-9q-60 -9 -124 -9q-60 0 -79 -25q-13 -14 -13 -132q0 -13 0.5 -32.5 t0.5 -25.5l1 -229l14 -280q6 -124 51 -202q35 -59 96 -92q88 -47 177 -47q104 0 191 28q56 18 99 51q48 36 65 64q36 56 53 114q21 73 21 229q0 79 -3.5 128t-11 122.5t-13.5 159.5l-4 59q-5 67 -24 88q-34 35 -77 34l-100 -2l-14 3l2 86h84l205 -10q76 -3 196 10l18 -2 q6 -38 6 -51q0 -7 -4 -31q-45 -12 -84 -13q-73 -11 -79 -17q-15 -15 -15 -41q0 -7 1.5 -27t1.5 -31q8 -19 22 -396q6 -195 -15 -304q-15 -76 -41 -122q-38 -65 -112 -123q-75 -57 -182 -89q-109 -33 -255 -33q-167 0 -284 46q-119 47 -179 122q-61 76 -83 195 q-16 80 -16 237v333q0 188 -17 213q-25 36 -147 39q-37 2 -45 4z" />
<glyph unicode="&#x178;" horiz-adv-x="1024" d="M0 320q0 26 19 45l448 448q19 19 45 19t45 -19l448 -448q19 -19 19 -45t-19 -45t-45 -19h-896q-26 0 -45 19t-19 45z" />
<glyph unicode="&#x2c6;" horiz-adv-x="1408" d="M0 -192v1664q0 26 19 45t45 19h1280q26 0 45 -19t19 -45v-1664q0 -26 -19 -45t-45 -19h-1280q-26 0 -45 19t-19 45zM128 -128h384v224q0 13 9.5 22.5t22.5 9.5h320q13 0 22.5 -9.5t9.5 -22.5v-224h384v1536h-1152v-1536zM256 160v64q0 13 9.5 22.5t22.5 9.5h64 q13 0 22.5 -9.5t9.5 -22.5v-64q0 -13 -9.5 -22.5t-22.5 -9.5h-64q-13 0 -22.5 9.5t-9.5 22.5zM256 416v64q0 13 9.5 22.5t22.5 9.5h64q13 0 22.5 -9.5t9.5 -22.5v-64q0 -13 -9.5 -22.5t-22.5 -9.5h-64q-13 0 -22.5 9.5t-9.5 22.5zM256 672v64q0 13 9.5 22.5t22.5 9.5h64 q13 0 22.5 -9.5t9.5 -22.5v-64q0 -13 -9.5 -22.5t-22.5 -9.5h-64q-13 0 -22.5 9.5t-9.5 22.5zM256 928v64q0 13 9.5 22.5t22.5 9.5h64q13 0 22.5 -9.5t9.5 -22.5v-64q0 -13 -9.5 -22.5t-22.5 -9.5h-64q-13 0 -22.5 9.5t-9.5 22.5zM256 1184v64q0 13 9.5 22.5t22.5 9.5h64 q13 0 22.5 -9.5t9.5 -22.5v-64q0 -13 -9.5 -22.5t-22.5 -9.5h-64q-13 0 -22.5 9.5t-9.5 22.5zM512 416v64q0 13 9.5 22.5t22.5 9.5h64q13 0 22.5 -9.5t9.5 -22.5v-64q0 -13 -9.5 -22.5t-22.5 -9.5h-64q-13 0 -22.5 9.5t-9.5 22.5zM512 672v64q0 13 9.5 22.5t22.5 9.5h64 q13 0 22.5 -9.5t9.5 -22.5v-64q0 -13 -9.5 -22.5t-22.5 -9.5h-64q-13 0 -22.5 9.5t-9.5 22.5zM512 928v64q0 13 9.5 22.5t22.5 9.5h64q13 0 22.5 -9.5t9.5 -22.5v-64q0 -13 -9.5 -22.5t-22.5 -9.5h-64q-13 0 -22.5 9.5t-9.5 22.5zM512 1184v64q0 13 9.5 22.5t22.5 9.5h64 q13 0 22.5 -9.5t9.5 -22.5v-64q0 -13 -9.5 -22.5t-22.5 -9.5h-64q-13 0 -22.5 9.5t-9.5 22.5zM768 416v64q0 13 9.5 22.5t22.5 9.5h64q13 0 22.5 -9.5t9.5 -22.5v-64q0 -13 -9.5 -22.5t-22.5 -9.5h-64q-13 0 -22.5 9.5t-9.5 22.5zM768 672v64q0 13 9.5 22.5t22.5 9.5h64 q13 0 22.5 -9.5t9.5 -22.5v-64q0 -13 -9.5 -22.5t-22.5 -9.5h-64q-13 0 -22.5 9.5t-9.5 22.5zM768 928v64q0 13 9.5 22.5t22.5 9.5h64q13 0 22.5 -9.5t9.5 -22.5v-64q0 -13 -9.5 -22.5t-22.5 -9.5h-64q-13 0 -22.5 9.5t-9.5 22.5zM768 1184v64q0 13 9.5 22.5t22.5 9.5h64 q13 0 22.5 -9.5t9.5 -22.5v-64q0 -13 -9.5 -22.5t-22.5 -9.5h-64q-13 0 -22.5 9.5t-9.5 22.5zM1024 160v64q0 13 9.5 22.5t22.5 9.5h64q13 0 22.5 -9.5t9.5 -22.5v-64q0 -13 -9.5 -22.5t-22.5 -9.5h-64q-13 0 -22.5 9.5t-9.5 22.5zM1024 416v64q0 13 9.5 22.5t22.5 9.5h64 q13 0 22.5 -9.5t9.5 -22.5v-64q0 -13 -9.5 -22.5t-22.5 -9.5h-64q-13 0 -22.5 9.5t-9.5 22.5zM1024 672v64q0 13 9.5 22.5t22.5 9.5h64q13 0 22.5 -9.5t9.5 -22.5v-64q0 -13 -9.5 -22.5t-22.5 -9.5h-64q-13 0 -22.5 9.5t-9.5 22.5zM1024 928v64q0 13 9.5 22.5t22.5 9.5h64 q13 0 22.5 -9.5t9.5 -22.5v-64q0 -13 -9.5 -22.5t-22.5 -9.5h-64q-13 0 -22.5 9.5t-9.5 22.5zM1024 1184v64q0 13 9.5 22.5t22.5 9.5h64q13 0 22.5 -9.5t9.5 -22.5v-64q0 -13 -9.5 -22.5t-22.5 -9.5h-64q-13 0 -22.5 9.5t-9.5 22.5z" />
<glyph unicode="&#x2dc;" horiz-adv-x="1408" d="M0 -192v1280q0 26 19 45t45 19h320v288q0 40 28 68t68 28h448q40 0 68 -28t28 -68v-288h320q26 0 45 -19t19 -45v-1280q0 -26 -19 -45t-45 -19h-1280q-26 0 -45 19t-19 45zM128 -128h384v224q0 13 9.5 22.5t22.5 9.5h320q13 0 22.5 -9.5t9.5 -22.5v-224h384v1152h-256 v-32q0 -40 -28 -68t-68 -28h-448q-40 0 -68 28t-28 68v32h-256v-1152zM256 160v64q0 13 9.5 22.5t22.5 9.5h64q13 0 22.5 -9.5t9.5 -22.5v-64q0 -13 -9.5 -22.5t-22.5 -9.5h-64q-13 0 -22.5 9.5t-9.5 22.5zM256 416v64q0 13 9.5 22.5t22.5 9.5h64q13 0 22.5 -9.5t9.5 -22.5 v-64q0 -13 -9.5 -22.5t-22.5 -9.5h-64q-13 0 -22.5 9.5t-9.5 22.5zM256 672v64q0 13 9.5 22.5t22.5 9.5h64q13 0 22.5 -9.5t9.5 -22.5v-64q0 -13 -9.5 -22.5t-22.5 -9.5h-64q-13 0 -22.5 9.5t-9.5 22.5zM512 416v64q0 13 9.5 22.5t22.5 9.5h64q13 0 22.5 -9.5t9.5 -22.5v-64 q0 -13 -9.5 -22.5t-22.5 -9.5h-64q-13 0 -22.5 9.5t-9.5 22.5zM512 672v64q0 13 9.5 22.5t22.5 9.5h64q13 0 22.5 -9.5t9.5 -22.5v-64q0 -13 -9.5 -22.5t-22.5 -9.5h-64q-13 0 -22.5 9.5t-9.5 22.5zM512 1056q0 -13 9.5 -22.5t22.5 -9.5h64q13 0 22.5 9.5t9.5 22.5v96h128 v-96q0 -13 9.5 -22.5t22.5 -9.5h64q13 0 22.5 9.5t9.5 22.5v320q0 13 -9.5 22.5t-22.5 9.5h-64q-13 0 -22.5 -9.5t-9.5 -22.5v-96h-128v96q0 13 -9.5 22.5t-22.5 9.5h-64q-13 0 -22.5 -9.5t-9.5 -22.5v-320zM768 416v64q0 13 9.5 22.5t22.5 9.5h64q13 0 22.5 -9.5t9.5 -22.5 v-64q0 -13 -9.5 -22.5t-22.5 -9.5h-64q-13 0 -22.5 9.5t-9.5 22.5zM768 672v64q0 13 9.5 22.5t22.5 9.5h64q13 0 22.5 -9.5t9.5 -22.5v-64q0 -13 -9.5 -22.5t-22.5 -9.5h-64q-13 0 -22.5 9.5t-9.5 22.5zM1024 160v64q0 13 9.5 22.5t22.5 9.5h64q13 0 22.5 -9.5t9.5 -22.5 v-64q0 -13 -9.5 -22.5t-22.5 -9.5h-64q-13 0 -22.5 9.5t-9.5 22.5zM1024 416v64q0 13 9.5 22.5t22.5 9.5h64q13 0 22.5 -9.5t9.5 -22.5v-64q0 -13 -9.5 -22.5t-22.5 -9.5h-64q-13 0 -22.5 9.5t-9.5 22.5zM1024 672v64q0 13 9.5 22.5t22.5 9.5h64q13 0 22.5 -9.5t9.5 -22.5 v-64q0 -13 -9.5 -22.5t-22.5 -9.5h-64q-13 0 -22.5 9.5t-9.5 22.5z" />
<glyph unicode="&#x2000;" horiz-adv-x="768" />
<glyph unicode="&#x2001;" />
<glyph unicode="&#x2002;" horiz-adv-x="768" />
<glyph unicode="&#x2003;" />
<glyph unicode="&#x2004;" horiz-adv-x="512" />
<glyph unicode="&#x2005;" horiz-adv-x="384" />
<glyph unicode="&#x2006;" horiz-adv-x="256" />
<glyph unicode="&#x2007;" horiz-adv-x="256" />
<glyph unicode="&#x2008;" horiz-adv-x="192" />
<glyph unicode="&#x2009;" horiz-adv-x="307" />
<glyph unicode="&#x200a;" horiz-adv-x="85" />
<glyph unicode="&#x2010;" horiz-adv-x="1408" d="M0 1056v64q0 20 9 23q23 7 23 9l-32 381l411 -214q19 40 54 63q39 26 79 26h320q40 0 79 -26q38 -26 54 -63l70 -167h309q14 0 23 -9t9 -23v-64q0 -14 -9 -23t-23 -9h-96v-948q0 -83 -47 -143.5t-113 -60.5h-832q-66 0 -113 58.5t-47 141.5v952h-96q-14 0 -23 9t-9 23z M256 76q0 -22 7 -40.5t14.5 -27t10.5 -8.5h832q3 0 10.5 8.5t14.5 27t7 40.5v948h-896v-948zM384 224v576q0 14 9 23t23 9h64q14 0 23 -9t9 -23v-576q0 -14 -9 -23t-23 -9h-64q-14 0 -23 9t-9 23zM480 1152h448l-48 117q-7 9 -17 11h-317q-10 -2 -17 -11zM640 224v576 q0 14 9 23t23 9h64q14 0 23 -9t9 -23v-576q0 -14 -9 -23t-23 -9h-64q-14 0 -23 9t-9 23zM896 224v576q0 14 9 23t23 9h64q14 0 23 -9t9 -23v-576q0 -14 -9 -23t-23 -9h-64q-14 0 -23 9t-9 23z" />
<glyph unicode="&#x2011;" horiz-adv-x="1408" d="M0 1056v64q0 20 9 23q23 7 23 9l-32 381l411 -214q19 40 54 63q39 26 79 26h320q40 0 79 -26q38 -26 54 -63l70 -167h309q14 0 23 -9t9 -23v-64q0 -14 -9 -23t-23 -9h-96v-948q0 -83 -47 -143.5t-113 -60.5h-832q-66 0 -113 58.5t-47 141.5v952h-96q-14 0 -23 9t-9 23z M256 76q0 -22 7 -40.5t14.5 -27t10.5 -8.5h832q3 0 10.5 8.5t14.5 27t7 40.5v948h-896v-948zM384 224v576q0 14 9 23t23 9h64q14 0 23 -9t9 -23v-576q0 -14 -9 -23t-23 -9h-64q-14 0 -23 9t-9 23zM480 1152h448l-48 117q-7 9 -17 11h-317q-10 -2 -17 -11zM640 224v576 q0 14 9 23t23 9h64q14 0 23 -9t9 -23v-576q0 -14 -9 -23t-23 -9h-64q-14 0 -23 9t-9 23zM896 224v576q0 14 9 23t23 9h64q14 0 23 -9t9 -23v-576q0 -14 -9 -23t-23 -9h-64q-14 0 -23 9t-9 23z" />
<glyph unicode="&#x2012;" horiz-adv-x="1408" d="M0 1056v64q0 20 9 23q23 7 23 9l-32 381l411 -214q19 40 54 63q39 26 79 26h320q40 0 79 -26q38 -26 54 -63l70 -167h309q14 0 23 -9t9 -23v-64q0 -14 -9 -23t-23 -9h-96v-948q0 -83 -47 -143.5t-113 -60.5h-832q-66 0 -113 58.5t-47 141.5v952h-96q-14 0 -23 9t-9 23z M256 76q0 -22 7 -40.5t14.5 -27t10.5 -8.5h832q3 0 10.5 8.5t14.5 27t7 40.5v948h-896v-948zM384 224v576q0 14 9 23t23 9h64q14 0 23 -9t9 -23v-576q0 -14 -9 -23t-23 -9h-64q-14 0 -23 9t-9 23zM480 1152h448l-48 117q-7 9 -17 11h-317q-10 -2 -17 -11zM640 224v576 q0 14 9 23t23 9h64q14 0 23 -9t9 -23v-576q0 -14 -9 -23t-23 -9h-64q-14 0 -23 9t-9 23zM896 224v576q0 14 9 23t23 9h64q14 0 23 -9t9 -23v-576q0 -14 -9 -23t-23 -9h-64q-14 0 -23 9t-9 23z" />
<glyph unicode="&#x2013;" horiz-adv-x="1664" d="M0 160v1088q0 66 47 113t113 47h1344q66 0 113 -47t47 -113v-1088q0 -66 -47 -113t-113 -47h-1344q-66 0 -113 47t-47 113zM128 160q0 -14 9 -23t23 -9h320q14 0 23 9t9 23v192q0 14 -9 23t-23 9h-320q-14 0 -23 -9t-9 -23v-192zM128 544q0 -14 9 -23t23 -9h320 q14 0 23 9t9 23v192q0 14 -9 23t-23 9h-320q-14 0 -23 -9t-9 -23v-192zM128 928q0 -14 9 -23t23 -9h320q14 0 23 9t9 23v192q0 14 -9 23t-23 9h-320q-14 0 -23 -9t-9 -23v-192zM640 160q0 -14 9 -23t23 -9h320q14 0 23 9t9 23v192q0 14 -9 23t-23 9h-320q-14 0 -23 -9 t-9 -23v-192zM640 544q0 -14 9 -23t23 -9h320q14 0 23 9t9 23v192q0 14 -9 23t-23 9h-320q-14 0 -23 -9t-9 -23v-192zM640 928q0 -14 9 -23t23 -9h320q14 0 23 9t9 23v192q0 14 -9 23t-23 9h-320q-14 0 -23 -9t-9 -23v-192zM1152 160q0 -14 9 -23t23 -9h320q14 0 23 9t9 23 v192q0 14 -9 23t-23 9h-320q-14 0 -23 -9t-9 -23v-192zM1152 544q0 -14 9 -23t23 -9h320q14 0 23 9t9 23v192q0 14 -9 23t-23 9h-320q-14 0 -23 -9t-9 -23v-192zM1152 928q0 -14 9 -23t23 -9h320q14 0 23 9t9 23v192q0 14 -9 23t-23 9h-320q-14 0 -23 -9t-9 -23v-192z" />
<glyph unicode="&#x2014;" horiz-adv-x="1664" d="M27 160q0 27 18 45l1286 1286q18 18 45 18t45 -18l198 -198q18 -18 18 -45t-18 -45l-1286 -1286q-18 -18 -45 -18t-45 18l-198 198q-18 18 -18 45zM128 1408l98 30l30 98l30 -98l98 -30l-98 -30l-30 -98l-30 98zM320 1216l196 60l60 196l60 -196l196 -60l-196 -60 l-60 -196l-60 196zM768 1408l98 30l30 98l30 -98l98 -30l-98 -30l-30 -98l-30 98zM1083 1062l107 -107l293 293l-107 107zM1408 768l98 30l30 98l30 -98l98 -30l-98 -30l-30 -98l-30 98z" />
<glyph unicode="&#x2018;" d="M0 160v960q0 119 84.5 203.5t203.5 84.5h960q119 0 203.5 -84.5t84.5 -203.5v-960q0 -119 -84.5 -203.5t-203.5 -84.5h-725q85 122 108 210q9 34 53 209q21 -39 73.5 -67t112.5 -28q181 0 295.5 147.5t114.5 373.5q0 84 -35 162.5t-96.5 139t-152.5 97t-197 36.5 q-104 0 -194.5 -28.5t-153 -76.5t-107.5 -109.5t-66.5 -128t-21.5 -132.5q0 -102 39.5 -180t116.5 -110q13 -5 23.5 0t14.5 19q10 44 15 61q6 23 -11 42q-50 62 -50 150q0 150 103.5 256.5t270.5 106.5q149 0 232.5 -81t83.5 -210q0 -168 -67.5 -286t-173.5 -118 q-60 0 -97 43.5t-23 103.5q8 34 26.5 92.5t29.5 102t11 74.5q0 49 -26.5 81.5t-75.5 32.5q-61 0 -103.5 -56.5t-42.5 -139.5q0 -72 24 -121l-98 -414q-24 -100 -7 -254h-183q-119 0 -203.5 84.5t-84.5 203.5z" />
<glyph unicode="&#x2019;" d="M0 209v433q103 -118 273 -118q32 0 70 5q-21 -61 -21 -86q0 -67 63 -149q-234 -7 -385 -85zM0 1108q0 126 81 213t207 87h960q119 0 203.5 -84.5t84.5 -203.5v-96h-256v256h-128v-256h-256v-128h256v-256h128v256h256v-736q0 -119 -84.5 -203.5t-203.5 -84.5h-468 q39 73 39 157q0 66 -22 122.5t-55.5 93t-72 71t-72 59.5t-55.5 54.5t-22 59.5q0 36 23 68t56 61.5t65.5 64.5t55.5 93t23 131t-26.5 145.5t-75.5 118.5q-6 6 -14 11t-12.5 7.5t-10 9.5t-10.5 17h135l135 64h-437q-138 0 -244.5 -38.5t-182.5 -133.5zM13 76q24 45 69 77.5 t100 49.5t107 24t107 7q32 0 49 -2q6 -4 30.5 -21t33 -23t31 -23t32 -25.5t27.5 -25.5t26.5 -29.5t21 -30.5t17.5 -34.5t9.5 -36t4.5 -40.5q0 -38 -10 -71h-380q-95 0 -171.5 56.5t-103.5 147.5zM96 974q0 96 51.5 165t144.5 69q66 0 119 -41t84 -104t47 -130t16 -128 q0 -100 -43.5 -160.5t-140.5 -60.5q-51 0 -97 26t-78 67.5t-56 93.5t-35.5 104t-11.5 99z" />
<glyph unicode="&#x201a;" d="M0 832v448q0 42 40 59q39 17 69 -14l130 -129q107 101 244.5 156.5t284.5 55.5q156 0 298 -61t245 -164t164 -245t61 -298t-61 -298t-164 -245t-245 -164t-298 -61q-172 0 -327 72.5t-264 204.5q-7 10 -6.5 22.5t8.5 20.5l137 138q10 9 25 9q16 -2 23 -12 q73 -95 179 -147t225 -52q104 0 198.5 40.5t163.5 109.5t109.5 163.5t40.5 198.5t-40.5 198.5t-109.5 163.5t-163.5 109.5t-198.5 40.5q-98 0 -188 -35.5t-160 -101.5l137 -138q31 -30 14 -69q-17 -40 -59 -40h-448q-26 0 -45 19t-19 45z" />
<glyph unicode="&#x201c;" horiz-adv-x="1792" d="M64 192q0 26 19 45t45 19v320q0 8 -0.5 35t0 38t2.5 34.5t6.5 37t14 30.5t22.5 30l198 198q19 19 50.5 32t58.5 13h160v192q0 26 19 45t45 19h1024q26 0 45 -19t19 -45v-1024q0 -15 -4 -26.5t-13.5 -18.5t-16.5 -11.5t-23.5 -6t-22.5 -2t-25.5 0t-22.5 0.5 q0 -106 -75 -181t-181 -75t-181 75t-75 181h-384q0 -106 -75 -181t-181 -75t-181 75t-75 181h-64q-3 0 -22.5 -0.5t-25.5 0t-22.5 2t-23.5 6t-16.5 11.5t-13.5 18.5t-4 26.5zM256 640h384v256h-158q-13 0 -22 -9l-195 -195q-9 -9 -9 -22v-30zM384 128q0 -52 38 -90t90 -38 t90 38t38 90t-38 90t-90 38t-90 -38t-38 -90zM1280 128q0 -52 38 -90t90 -38t90 38t38 90t-38 90t-90 38t-90 -38t-38 -90z" />
<glyph unicode="&#x201d;" d="M0 640q0 209 103 385.5t279.5 279.5t385.5 103t385.5 -103t279.5 -279.5t103 -385.5t-103 -385.5t-279.5 -279.5t-385.5 -103q-111 0 -218 32q59 93 78 164q9 34 54 211q20 -39 73 -67.5t114 -28.5q121 0 216 68.5t147 188.5t52 270q0 114 -59.5 214t-172.5 163t-255 63 q-105 0 -196 -29t-154.5 -77t-109 -110.5t-67 -129.5t-21.5 -134q0 -104 40 -183t117 -111q30 -12 38 20q2 7 8 31t8 30q6 23 -11 43q-51 61 -51 151q0 151 104.5 259.5t273.5 108.5q151 0 235.5 -82t84.5 -213q0 -170 -68.5 -289t-175.5 -119q-61 0 -98 43.5t-23 104.5 q8 35 26.5 93.5t30 103t11.5 75.5q0 50 -27 83t-77 33q-62 0 -105 -57t-43 -142q0 -73 25 -122l-99 -418q-17 -70 -13 -177q-206 91 -333 281t-127 423z" />
<glyph unicode="&#x201e;" horiz-adv-x="1792" d="M40 736q0 13 4.5 26t9 22t15.5 22t16.5 18.5t20.5 19t18 16.5q30 28 68 28q10 0 18 -1.5t16.5 -5.5t13.5 -6t13.5 -10t11.5 -10t13 -12.5t12 -12.5q-14 14 -14 34t14 34l348 348q14 14 34 14t34 -14q-2 2 -12.5 12t-12.5 13t-10 11.5t-10 13.5t-6 13.5t-5.5 16.5t-1.5 18 q0 38 28 68q3 3 16.5 18t19 20.5t18.5 16.5t22 15.5t22 9t26 4.5q40 0 68 -28l408 -408q28 -28 28 -68q0 -13 -4.5 -26t-9 -22t-15.5 -22t-16.5 -18.5t-20.5 -19t-18 -16.5q-30 -28 -68 -28q-10 0 -18 1.5t-16.5 5.5t-13.5 6t-13.5 10t-11.5 10t-13 12.5t-12 12.5 q14 -14 14 -34t-14 -34l-126 -126l256 -256q43 43 96 43q52 0 91 -37l363 -363q37 -39 37 -91q0 -53 -37 -90l-107 -108q-39 -37 -91 -37q-53 0 -90 37l-363 364q-38 36 -38 90q0 53 43 96l-256 256l-126 -126q-14 -14 -34 -14t-34 14q2 -2 12.5 -12t12.5 -13t10 -11.5 t10 -13.5t6 -13.5t5.5 -16.5t1.5 -18q0 -38 -28 -68q-3 -3 -16.5 -18t-19 -20.5t-18.5 -16.5t-22 -15.5t-22 -9t-26 -4.5q-40 0 -68 28l-408 408q-28 28 -28 68z" />
<glyph unicode="&#x2022;" d="M0 433q0 111 18 217.5t54.5 209.5t100.5 194t150 156q78 59 232 120q194 78 316 78q60 0 175.5 -24t173.5 -24q19 0 57 5t58 5q81 0 118 -50.5t37 -134.5q0 -23 -5 -68t-5 -68q0 -10 1 -18.5t3 -17t4 -13.5t6.5 -16t6.5 -17q16 -40 25 -118.5t9 -136.5q0 -165 -70 -327.5 t-196 -288t-281 -180.5q-124 -44 -326 -44q-57 0 -170 14.5t-169 14.5q-24 0 -72.5 -14.5t-73.5 -14.5q-73 0 -123.5 55.5t-50.5 128.5q0 24 11 68t11 67q0 40 -12.5 120.5t-12.5 121.5zM128 434q0 -40 12.5 -120t12.5 -121q0 -23 -11 -66.5t-11 -65.5t12 -36.5t34 -14.5 q24 0 72.5 11t73.5 11q57 0 169.5 -15.5t169.5 -15.5q181 0 284 36q129 45 235.5 152.5t166 245.5t59.5 275q0 44 -7 113.5t-18 96.5q-12 30 -17 44t-9 36.5t-4 48.5q0 23 5 68.5t5 67.5q0 37 -10 55q-4 1 -13 1q-19 0 -58 -4.5t-59 -4.5q-60 0 -176 24t-175 24 q-43 0 -94.5 -11.5t-85 -23.5t-89.5 -34q-137 -54 -202 -103q-96 -73 -159.5 -189.5t-88 -236t-24.5 -248.5z" />
<glyph unicode="&#x2026;" d="M0 -32v1344q0 40 28 68t68 28h928q40 0 88 -20t76 -48l280 -280q28 -28 48 -76t20 -88v-928q0 -40 -28 -68t-68 -28h-1344q-40 0 -68 28t-28 68zM128 0h128v416q0 40 28 68t68 28h832q40 0 68 -28t28 -68v-416h128v896q0 14 -10 38.5t-20 34.5l-281 281q-10 10 -34 20 t-39 10v-416q0 -40 -28 -68t-68 -28h-576q-40 0 -68 28t-28 68v416h-128v-1280zM384 0h768v384h-768v-384zM640 928q0 -13 9.5 -22.5t22.5 -9.5h192q13 0 22.5 9.5t9.5 22.5v320q0 13 -9.5 22.5t-22.5 9.5h-192q-13 0 -22.5 -9.5t-9.5 -22.5v-320z" />
<glyph unicode="&#x202f;" horiz-adv-x="307" />
<glyph unicode="&#x2039;" horiz-adv-x="1664" d="M0 32v1216q0 66 47 113t113 47h1344q66 0 113 -47t47 -113v-1216q0 -66 -47 -113t-113 -47h-1344q-66 0 -113 47t-47 113zM128 32q0 -13 9.5 -22.5t22.5 -9.5h608v1152h-640v-1120zM896 0h608q13 0 22.5 9.5t9.5 22.5v1120h-640v-1152z" />
<glyph unicode="&#x203a;" horiz-adv-x="1024" d="M0 448q0 26 19 45t45 19h896q26 0 45 -19t19 -45t-19 -45l-448 -448q-19 -19 -45 -19t-45 19l-448 448q-19 19 -19 45zM0 832q0 26 19 45l448 448q19 19 45 19t45 -19l448 -448q19 -19 19 -45t-19 -45t-45 -19h-896q-26 0 -45 19t-19 45z" />
<glyph unicode="&#x205f;" horiz-adv-x="384" />
<glyph unicode="&#x20ac;" horiz-adv-x="640" d="M0 192v896q0 26 19 45t45 19t45 -19l448 -448q19 -19 19 -45t-19 -45l-448 -448q-19 -19 -45 -19t-45 19t-19 45z" />
<glyph unicode="&#x2122;" horiz-adv-x="1664" d="M44 145q35 -4 78 -4q225 0 401 138q-105 2 -188 64.5t-114 159.5q33 -5 61 -5q43 0 85 11q-112 23 -185.5 111.5t-73.5 205.5v4q68 -38 146 -41q-66 44 -105 115t-39 154q0 88 44 163q121 -149 294.5 -238.5t371.5 -99.5q-8 38 -8 74q0 134 94.5 228.5t228.5 94.5 q140 0 236 -102q109 21 205 78q-37 -115 -142 -178q93 10 186 50q-67 -98 -162 -167q1 -14 1 -42q0 -130 -38 -259.5t-115.5 -248.5t-184.5 -210.5t-258 -146t-323 -54.5q-271 0 -496 145z" />
<glyph unicode="&#xfb01;" horiz-adv-x="1024" d="M0 448q0 26 19 45t45 19h896q26 0 45 -19t19 -45t-19 -45l-448 -448q-19 -19 -45 -19t-45 19l-448 448q-19 19 -19 45z" />
<glyph unicode="&#xfb02;" horiz-adv-x="1024" d="M0 832q0 26 19 45l448 448q19 19 45 19t45 -19l448 -448q19 -19 19 -45t-19 -45t-45 -19h-896q-26 0 -45 19t-19 45z" />
</font>
</defs>
</svg>
